<svg width="83" height="32" viewBox="0 0 83 32" fill="none" xmlns="http://www.w3.org/2000/svg">
<g clip-path="url(#clip0_1_312)">
<path fill-rule="evenodd" clip-rule="evenodd" d="M15.3293 0H15.7978C19.5478 0.0487204 23.2636 1.51568 26.0283 4.06697C26.7597 4.71816 27.4107 5.45728 28.0014 6.23859C29.4163 8.12383 30.3957 10.3365 30.8435 12.6548C31.3533 15.2661 31.1861 18.0081 30.3567 20.5351C29.8056 22.2355 28.9561 23.8362 27.8685 25.2508C26.6752 26.798 25.1918 28.1164 23.5171 29.1158C21.1948 30.5085 18.5063 31.2702 15.8037 31.3118H15.3328C12.8009 31.2726 10.2796 30.6047 8.06252 29.3725C6.08942 28.2834 4.35794 26.757 3.0264 24.9324C1.11592 22.3324 0.0448968 19.1239 0 15.8918V15.4188C0.0271744 13.8538 0.281196 12.2918 0.76679 10.804C1.87976 7.33064 4.25102 4.2868 7.33649 2.3665C9.72134 0.866867 12.5173 0.0421847 15.3293 0ZM13.6982 3.70632C11.3772 4.05984 9.1684 5.11505 7.42688 6.69846C6.23829 7.77209 5.26828 9.08992 4.58715 10.5426C3.56221 12.7095 3.20244 15.1853 3.56102 17.5572C3.89243 19.7942 4.86067 21.9313 6.32277 23.649C8.17004 25.8456 10.8219 27.3351 13.648 27.776C16.2018 28.1871 18.8826 27.7439 21.1694 26.5271C23.3008 25.4083 25.0814 23.6312 26.2115 21.4964C27.4314 19.2255 27.8886 16.5608 27.5276 14.0071C23.4633 18.0646 19.409 22.1321 15.3458 26.1908C15.0375 26.5075 14.5389 26.5889 14.1354 26.4296C13.879 26.3304 13.6971 26.1165 13.5074 25.927C11.0098 23.4262 8.50972 20.9278 6.01263 18.4264C5.58552 18.026 5.55302 17.2868 5.95296 16.8561C6.321 16.4746 6.70085 16.1039 7.07538 15.7284C7.39793 15.4022 7.92074 15.3077 8.33722 15.4955C8.60483 15.6048 8.78264 15.843 8.98822 16.0356C10.8479 17.897 12.7082 19.7573 14.5672 21.6194C18.2795 17.9 21.9959 14.1848 25.7081 10.466C25.8606 10.2972 26.0508 10.1677 26.2634 10.0875C25.0642 7.78219 23.1142 5.88329 20.7778 4.76509C18.5955 3.70453 16.0925 3.332 13.6982 3.70632Z" fill="white"/>
<path fill-rule="evenodd" clip-rule="evenodd" d="M15.7363 6.38894C16.1138 6.22495 16.6041 6.41568 16.7311 6.8197C16.8357 7.18094 16.8209 7.62715 16.5527 7.9165C16.2101 8.27062 15.5237 8.15535 15.3488 7.68062C15.1804 7.24155 15.2543 6.59095 15.7363 6.38894ZM15.9212 6.69017C15.7517 6.75731 15.7222 6.96467 15.7032 7.1239C15.6944 7.32532 15.6897 7.56061 15.8356 7.71924C15.9809 7.86006 16.2414 7.78341 16.2993 7.5921C16.3826 7.35384 16.395 7.07934 16.2999 6.84287C16.2432 6.69196 16.0642 6.63848 15.9212 6.69017Z" fill="white"/>
<path fill-rule="evenodd" clip-rule="evenodd" d="M17.1624 6.38123C17.3166 6.40618 17.4708 6.42995 17.6238 6.46322C17.6515 6.90051 17.6941 7.33781 17.7112 7.77629C17.8973 7.38059 18.1011 6.99439 18.2889 6.59987C18.4437 6.63018 18.5979 6.66167 18.7527 6.69256C18.4573 7.22789 18.1472 7.7549 17.8447 8.28608C17.6929 8.25696 17.5411 8.22666 17.391 8.18863C17.3166 7.58616 17.2475 6.98251 17.1624 6.38123Z" fill="white"/>
<path fill-rule="evenodd" clip-rule="evenodd" d="M13.7532 6.58738C13.9954 6.45548 14.3209 6.41864 14.5666 6.55946C14.7025 6.64264 14.7716 6.79177 14.8331 6.93258C14.7025 6.96823 14.5696 6.99497 14.4355 7.0122C14.3877 6.9308 14.3262 6.8595 14.2547 6.79831C14.113 6.79712 13.957 6.82385 13.8843 6.96229C13.8164 7.14588 13.856 7.34552 13.8979 7.5303C13.934 7.67587 13.9942 7.8351 14.1389 7.90343C14.2795 7.95928 14.4219 7.8856 14.5537 7.84045C14.5442 7.74241 14.5324 7.64497 14.5153 7.54813C14.4166 7.56238 14.3179 7.57843 14.2193 7.59388C14.2045 7.49762 14.1892 7.40196 14.1744 7.30631C14.4048 7.26056 14.6358 7.2154 14.8662 7.17143C14.9164 7.41028 14.9625 7.65032 15.0044 7.89095C14.7646 8.17436 14.367 8.31161 14.0048 8.23734C13.6746 8.15416 13.4933 7.8149 13.4519 7.49762C13.3716 7.17203 13.4436 6.76622 13.7532 6.58738Z" fill="white"/>
<path fill-rule="evenodd" clip-rule="evenodd" d="M19.5815 7.00391C19.7304 7.04669 19.8686 7.11917 20.0068 7.18928C19.9247 7.6141 19.8568 8.04248 19.7688 8.46611C20.0535 8.14111 20.3353 7.81314 20.6153 7.48398C20.7595 7.54993 20.903 7.61885 21.0448 7.69075C20.6183 8.12982 20.1965 8.57306 19.7652 9.00798C19.6276 8.93906 19.4899 8.87014 19.3529 8.80003C19.4379 8.20231 19.5017 7.60222 19.5815 7.00391Z" fill="white"/>
<path fill-rule="evenodd" clip-rule="evenodd" d="M53.0698 7.03537C53.3498 7.03359 53.6298 7.03477 53.9104 7.03477C53.9358 7.19519 53.9612 7.39839 54.132 7.47029C54.3635 7.56654 54.6365 7.56238 54.8686 7.46969C55.0423 7.40196 55.073 7.19817 55.0978 7.03477C55.3772 7.03418 55.6567 7.03359 55.9367 7.03537C55.9585 7.52554 55.6632 8.02463 55.1823 8.16485C54.7239 8.29972 54.2129 8.30388 53.7598 8.14762C53.3055 7.9872 53.0733 7.49524 53.0698 7.03537Z" fill="white"/>
<path fill-rule="evenodd" clip-rule="evenodd" d="M77.4718 7.07156C77.9355 7.06919 78.3998 7.07037 78.8648 7.07156C78.4288 7.46786 77.9964 7.86773 77.5616 8.26462C77.2426 8.26521 76.9242 8.26581 76.6063 8.26402C76.8917 7.86475 77.1835 7.46964 77.4718 7.07156Z" fill="white"/>
<path fill-rule="evenodd" clip-rule="evenodd" d="M10.9849 7.64969C11.3512 7.48927 11.6998 7.29261 12.0613 7.12268C12.1103 7.22131 12.1599 7.32053 12.2102 7.41916C11.9821 7.53859 11.7482 7.64494 11.5166 7.75664C11.5603 7.86715 11.6052 7.97707 11.6614 8.08223C11.8587 7.98479 12.0577 7.89211 12.2545 7.79407C12.3005 7.88795 12.3466 7.98242 12.3927 8.07629C12.1983 8.17433 12.0034 8.27177 11.809 8.3704C11.8681 8.49042 11.9272 8.60984 11.9863 8.72986C12.2167 8.61697 12.4435 8.49755 12.6774 8.39357C12.7259 8.49161 12.7737 8.58964 12.8222 8.68768C12.4671 8.8677 12.108 9.03704 11.7523 9.21409C11.4912 8.6954 11.2396 8.17195 10.9849 7.64969Z" fill="white"/>
<path fill-rule="evenodd" clip-rule="evenodd" d="M40.4904 7.84577C40.631 7.4976 40.9152 7.19577 41.2944 7.12803C41.6944 7.01158 42.086 7.18864 42.4511 7.33658C42.7447 7.45957 43.1287 7.3853 43.2764 7.07812C43.502 7.21419 43.7283 7.34846 43.9552 7.48155C43.8146 7.84101 43.5139 8.14522 43.124 8.2082C42.7418 8.30802 42.3678 8.1476 42.0216 8.00203C41.7257 7.87013 41.3192 7.92954 41.1733 8.25098C40.9453 8.11611 40.7179 7.98123 40.4904 7.84577Z" fill="white"/>
<path fill-rule="evenodd" clip-rule="evenodd" d="M10.1668 8.20168C10.2784 8.11612 10.3924 8.03294 10.507 7.95154C10.8485 8.41557 11.1964 8.87485 11.5361 9.34007C11.4245 9.42444 11.3128 9.50881 11.2012 9.59318C10.8296 9.42563 10.4545 9.26461 10.0829 9.09766C10.3003 9.37928 10.5106 9.66685 10.7191 9.95561C10.6051 10.0382 10.4934 10.1232 10.383 10.2099C10.0362 9.74647 9.69534 9.27828 9.34917 8.81484C9.46141 8.73225 9.57306 8.64848 9.68353 8.56292C10.0587 8.72928 10.4373 8.88673 10.8089 9.0626C10.5903 8.7786 10.3836 8.48627 10.1668 8.20168Z" fill="white"/>
<path fill-rule="evenodd" clip-rule="evenodd" d="M21.4518 7.95923C21.5676 8.04122 21.6804 8.12678 21.7921 8.21471C21.743 8.6223 21.6875 9.0287 21.6397 9.43569C21.8435 9.14337 22.0621 8.86056 22.2765 8.57536C22.3864 8.66152 22.4986 8.7447 22.6126 8.8261C22.2676 9.29132 21.9203 9.75535 21.5741 10.22C21.4571 10.1356 21.3425 10.0483 21.2344 9.9532C21.3053 9.55037 21.3313 9.14159 21.4004 8.73875C21.1895 9.03048 20.9698 9.31508 20.7583 9.60562C20.6443 9.52125 20.532 9.43451 20.4215 9.34598C20.7624 8.88195 21.1109 8.42385 21.4518 7.95923Z" fill="white"/>
<path fill-rule="evenodd" clip-rule="evenodd" d="M18.4508 8.10776C18.5796 8.07508 18.7332 8.14222 18.761 8.28184C18.7828 8.44583 18.5731 8.5914 18.4343 8.48683C18.2618 8.43632 18.2777 8.14281 18.4508 8.10776Z" fill="white"/>
<path fill-rule="evenodd" clip-rule="evenodd" d="M13.1394 8.16894C13.2971 8.12557 13.4578 8.33827 13.3521 8.47433C13.2694 8.61277 13.0218 8.64545 12.9545 8.47552C12.8824 8.33768 13.0012 8.18973 13.1394 8.16894Z" fill="white"/>
<path fill-rule="evenodd" clip-rule="evenodd" d="M41.1969 8.57837C41.8816 8.58015 42.5669 8.57896 43.2522 8.57896C43.7248 11.0999 44.2062 13.6191 44.6747 16.1407C44.2021 16.1413 43.7295 16.1401 43.2575 16.1413C43.1695 15.6868 43.0956 15.2299 43.0123 14.7748C42.4428 14.7742 41.8739 14.7742 41.3051 14.7748C41.22 15.2275 41.1639 15.6945 41.0516 16.1372C40.6239 16.1467 40.1956 16.1389 39.7679 16.1395C40.247 13.6197 40.7155 11.0982 41.1969 8.57837ZM41.4888 13.6904C41.9318 13.6881 42.3749 13.6875 42.818 13.6904C42.6006 12.4303 42.369 11.1718 42.1534 9.91165C41.9377 11.1718 41.7068 12.4303 41.4888 13.6904Z" fill="white"/>
<path fill-rule="evenodd" clip-rule="evenodd" d="M63.2241 9.34004C63.5189 8.85818 64.0807 8.62349 64.6224 8.57239C65.1476 8.53318 65.6988 8.5415 66.1867 8.76549C66.569 8.93542 66.8744 9.26993 67.0067 9.6692C67.1739 10.1546 67.1201 10.6769 67.1296 11.1813C66.6836 11.1825 66.2381 11.1825 65.7933 11.1813C65.7833 10.8302 65.814 10.4761 65.7697 10.1267C65.661 9.42381 64.3844 9.47016 64.3672 10.2039C64.3436 11.5348 64.3649 12.8669 64.3566 14.1978C64.3619 14.4182 64.3365 14.6559 64.447 14.8567C64.5397 15.0273 64.7359 15.1104 64.9202 15.133C65.1612 15.1621 65.4347 15.1342 65.6208 14.9607C65.772 14.8092 65.7886 14.581 65.7915 14.379C65.7945 13.9251 65.7909 13.4718 65.7933 13.0184C65.5824 13.0184 65.3721 13.0184 65.1624 13.0178C65.1612 12.6596 65.1618 12.3007 65.1618 11.9424C65.8175 11.9424 66.4738 11.9418 67.1296 11.943C67.1272 12.754 67.1349 13.565 67.126 14.3767C67.1195 14.865 66.9807 15.3826 66.6121 15.7224C66.1797 16.1318 65.5546 16.2346 64.9822 16.2209C64.4192 16.2233 63.806 16.0938 63.4049 15.6672C63.0581 15.3136 62.9477 14.7985 62.9453 14.3172C62.9441 13.249 62.9453 12.1801 62.9447 11.1112C62.9489 10.5159 62.8886 9.86586 63.2241 9.34004Z" fill="white"/>
<path fill-rule="evenodd" clip-rule="evenodd" d="M34.9398 8.61577C35.7373 8.61577 36.5354 8.6128 37.3335 8.61696C37.8734 8.63003 38.4606 8.76728 38.8334 9.18913C39.1553 9.548 39.2469 10.0489 39.2493 10.5177C39.2516 11.7452 39.2498 12.9721 39.2504 14.199C39.2522 14.6868 39.1695 15.212 38.834 15.587C38.4612 16.0088 37.874 16.146 37.3346 16.1591C36.536 16.1633 35.7379 16.1603 34.9398 16.1603C34.9403 15.0736 34.9392 13.9863 34.9403 12.8996C34.7879 12.8996 34.6355 12.8996 34.4837 12.899C34.4825 12.5805 34.4831 12.2615 34.4831 11.943C34.6349 11.9424 34.7873 11.9424 34.9398 11.9418C34.9398 10.8331 34.9403 9.72446 34.9398 8.61577ZM36.3552 9.69119C36.357 10.4416 36.3558 11.1914 36.3558 11.9418C36.6417 11.943 36.9282 11.9418 37.2147 11.9424C37.2141 12.2615 37.2147 12.58 37.2141 12.899C36.9276 12.9002 36.6411 12.899 36.3552 12.8996C36.357 13.6298 36.3558 14.3606 36.3558 15.0908C36.7226 15.0772 37.1001 15.133 37.4593 15.0332C37.7127 14.9572 37.8409 14.6868 37.8326 14.4349C37.8362 13.0713 37.8356 11.7071 37.8326 10.343C37.845 10.0768 37.6956 9.79576 37.4244 9.731C37.0735 9.65435 36.7108 9.70545 36.3552 9.69119Z" fill="white"/>
<path fill-rule="evenodd" clip-rule="evenodd" d="M47.2864 8.61577C48.0862 8.61577 48.8861 8.6128 49.686 8.61696C50.2236 8.63063 50.8084 8.76847 51.18 9.18854C51.5019 9.54859 51.5935 10.0501 51.5965 10.52C51.5982 11.5681 51.5965 12.6168 51.5971 13.6655C51.5935 14.0594 51.6171 14.4575 51.5386 14.8455C51.46 15.2269 51.2532 15.5905 50.9283 15.8115C50.5142 16.0961 49.9967 16.1627 49.507 16.1645C48.7668 16.171 48.0266 16.1668 47.287 16.1662C47.2864 15.0772 47.2864 13.9887 47.287 12.8996C47.134 12.8996 46.9821 12.8996 46.8303 12.899C46.8291 12.58 46.8291 12.2615 46.8297 11.943C46.9815 11.9424 47.134 11.9424 47.2864 11.9418C47.2864 10.8331 47.287 9.72446 47.2864 8.61577ZM48.7018 9.69119C48.703 10.4416 48.7024 11.1914 48.7024 11.9418C48.9883 11.943 49.2748 11.9418 49.5613 11.9424C49.5607 12.2615 49.5613 12.58 49.5607 12.899C49.2742 12.9002 48.9877 12.899 48.7018 12.8996C48.703 13.6298 48.7024 14.3606 48.7024 15.0908C49.0704 15.0772 49.4491 15.1342 49.8089 15.032C50.0611 14.9554 50.1875 14.685 50.1793 14.4343C50.1828 13.0695 50.1828 11.7048 50.1793 10.3406C50.1911 10.0738 50.0398 9.79338 49.7681 9.7304C49.4178 9.65494 49.0562 9.70545 48.7018 9.69119Z" fill="white"/>
<path fill-rule="evenodd" clip-rule="evenodd" d="M53.4821 8.61523C54.168 8.61583 54.8544 8.61464 55.5415 8.61583C56.0105 11.1332 56.4932 13.6489 56.9593 16.1669C56.4873 16.1681 56.0147 16.1675 55.5427 16.1669C55.4558 15.713 55.3802 15.2567 55.2987 14.8015C54.7298 14.8015 54.1609 14.7992 53.5926 14.8021C53.5176 15.2578 53.4325 15.7118 53.3545 16.1675C52.9215 16.1669 52.4891 16.1687 52.0561 16.1663C52.5334 13.6495 53.0042 11.1315 53.4821 8.61523ZM53.7769 13.7249H55.1085C54.8881 12.4641 54.6583 11.2051 54.4415 9.94376C54.2247 11.2051 53.9937 12.4636 53.7769 13.7249Z" fill="white"/>
<path fill-rule="evenodd" clip-rule="evenodd" d="M57.6144 8.61573C58.2034 8.61454 58.7924 8.61514 59.3813 8.61514C59.8533 10.1047 60.3259 11.5948 60.8015 13.0832C60.8021 11.5942 60.8015 10.1047 60.8015 8.61573C61.2209 8.61514 61.6409 8.61454 62.061 8.61573C62.061 11.0523 62.0592 13.489 62.0621 15.9256C62.0509 16.0022 62.0828 16.0961 62.0427 16.1638C61.5659 16.1727 61.0886 16.165 60.6125 16.1668C60.0347 14.3523 59.454 12.5383 58.8816 10.722C58.8863 12.5365 58.8827 14.3517 58.8833 16.1668C58.4604 16.168 58.0374 16.1674 57.615 16.1668C57.6144 13.65 57.615 11.1326 57.6144 8.61573Z" fill="white"/>
<path fill-rule="evenodd" clip-rule="evenodd" d="M70.0301 8.61573C70.5022 8.61454 70.9742 8.61514 71.4462 8.61514C71.445 9.70481 71.4491 10.7939 71.4438 11.883C72.0393 10.7891 72.6525 9.70541 73.255 8.61573C73.7259 8.61514 74.1973 8.61454 74.6693 8.61573C74.0218 9.73511 73.3779 10.8569 72.7275 11.9751C73.3714 13.3737 74.0254 14.7682 74.6711 16.1662C74.1872 16.168 73.704 16.168 73.2214 16.1668C72.7688 15.1663 72.3163 14.1663 71.8668 13.1646C71.735 13.3957 71.5744 13.6096 71.4521 13.8449C71.4379 14.6184 71.4509 15.3926 71.4462 16.1668C70.9742 16.1674 70.5022 16.1686 70.0301 16.1662C70.0301 13.6494 70.0307 11.1326 70.0301 8.61573Z" fill="white"/>
<path fill-rule="evenodd" clip-rule="evenodd" d="M74.8323 8.61692C75.3232 8.61395 75.8142 8.61514 76.3051 8.61573C76.6595 9.75591 77.0169 10.8943 77.3655 12.0363C77.717 10.8955 78.0732 9.7565 78.4247 8.61573C78.8742 8.61454 79.3238 8.61514 79.7733 8.61514C79.1932 10.2823 78.6043 11.946 78.0271 13.6137C77.9887 14.4622 78.0218 15.316 78.0106 16.1662C77.5385 16.1686 77.0671 16.1674 76.5951 16.1668C76.5945 15.3724 76.5939 14.578 76.5963 13.7837C76.6046 13.6191 76.5266 13.4694 76.477 13.3178C75.9293 11.7505 75.3788 10.1843 74.8323 8.61692Z" fill="white"/>
<path fill-rule="evenodd" clip-rule="evenodd" d="M8.67276 9.47312C8.76905 9.37509 8.86593 9.27824 8.96282 9.1814C9.3722 9.59136 9.78041 10.0025 10.1886 10.4143C10.0923 10.5111 9.99662 10.608 9.90092 10.7054C9.48208 10.3043 9.07624 9.88962 8.67276 9.47312Z" fill="white"/>
<path fill-rule="evenodd" clip-rule="evenodd" d="M7.67085 10.6501C7.7571 10.539 7.84394 10.4285 7.93078 10.318C8.29705 10.6079 8.66567 10.8949 9.02957 11.1878C9.18317 11.003 9.32613 10.8105 9.4744 10.6228C9.56479 10.6858 9.6534 10.7511 9.74024 10.8189C9.50217 11.1195 9.26764 11.4237 9.03134 11.7261C8.57706 11.3685 8.11864 11.0161 7.67085 10.6501Z" fill="white"/>
<path fill-rule="evenodd" clip-rule="evenodd" d="M7.32468 11.1599C7.83567 11.4273 8.34371 11.7012 8.85589 11.9674C8.79505 12.0939 8.73361 12.2205 8.66567 12.3429C8.25392 12.3441 7.84394 12.388 7.43219 12.3779C7.74883 12.5473 8.06665 12.7136 8.38448 12.88C8.3189 13.0048 8.25392 13.1301 8.18717 13.2543C7.67144 12.9958 7.16813 12.7142 6.65654 12.448C6.71916 12.3227 6.78414 12.1991 6.8503 12.0761C7.25674 12.0707 7.66258 12.0327 8.06902 12.0393C7.76006 11.8658 7.44578 11.7012 7.13209 11.5372C7.19885 11.4124 7.26265 11.2865 7.32468 11.1599Z" fill="white"/>
<path fill-rule="evenodd" clip-rule="evenodd" d="M6.75874 13.1605C7.11201 13.1005 7.50131 13.2181 7.76301 13.4647C8.15054 13.8384 7.9231 14.5936 7.39734 14.694C7.02517 14.7575 6.60396 14.6357 6.34699 14.3517C6.00672 13.9596 6.24597 13.2532 6.75874 13.1605ZM6.70498 13.5865C6.4994 13.6673 6.46337 13.9869 6.65831 14.1016C6.87157 14.2305 7.13327 14.3167 7.38375 14.2858C7.62005 14.2632 7.7063 13.9097 7.5084 13.7778C7.2851 13.6085 6.97968 13.5318 6.70498 13.5865Z" fill="white"/>
<path fill-rule="evenodd" clip-rule="evenodd" d="M35.0313 17.7057H79.3374C79.3368 17.8441 79.3368 17.9826 79.3374 18.1216H35.0313C35.0307 17.9826 35.0307 17.8441 35.0313 17.7057Z" fill="white"/>
<path fill-rule="evenodd" clip-rule="evenodd" d="M39.5287 18.8969C39.6238 18.8952 39.7201 18.8934 39.817 18.8916C40.0391 19.1382 40.26 19.3865 40.478 19.6373C40.3368 19.6337 40.1897 19.6616 40.0521 19.6278C39.9203 19.4929 39.8046 19.3437 39.6752 19.2071C39.5505 19.3491 39.4271 19.4923 39.3077 19.6379C39.1636 19.6408 39.02 19.6414 38.8771 19.6402C39.0833 19.383 39.319 19.1512 39.5287 18.8969Z" fill="white"/>
<path fill-rule="evenodd" clip-rule="evenodd" d="M47.8576 18.8969C47.9533 18.8952 48.0496 18.8934 48.1465 18.8916C48.3686 19.1388 48.5901 19.3865 48.8075 19.6379C48.6693 19.6402 48.5311 19.6414 48.3934 19.6432C48.2635 19.4976 48.1347 19.3515 48.0047 19.2071C47.8807 19.3491 47.7572 19.4917 47.6379 19.6379C47.4937 19.6408 47.3502 19.642 47.2066 19.6402C47.4128 19.383 47.6485 19.1518 47.8576 18.8969Z" fill="white"/>
<path fill-rule="evenodd" clip-rule="evenodd" d="M72.08 19.5719C72.2236 19.5725 72.3677 19.5725 72.5125 19.5743C72.4953 19.8315 72.464 20.106 72.2992 20.3158C72.1899 20.4708 72.0103 20.5469 71.8372 20.6045C71.9613 20.8469 72.0422 21.1125 72.0647 21.3852C72.0818 21.9711 72.1226 22.6086 71.7852 23.1208C71.3251 23.9187 70.0544 23.9799 69.4902 23.2681C69.1133 22.8166 69.0495 22.1992 69.0779 21.6324C69.082 21.0953 69.2551 20.5237 69.6816 20.1744C70.2334 19.7216 71.1088 19.7787 71.6122 20.2813C71.7232 20.2439 71.8467 20.213 71.9247 20.1161C72.0576 19.9682 72.0546 19.7573 72.08 19.5719ZM70.2629 20.3574C69.8092 20.5095 69.6143 21.0109 69.5824 21.453C69.5694 21.9521 69.5327 22.4975 69.824 22.933C70.1306 23.4374 70.9564 23.4701 71.305 22.9954C71.5478 22.6763 71.5903 22.2563 71.5773 21.8671C71.5885 21.4548 71.572 21.0068 71.318 20.6616C71.0911 20.3306 70.628 20.2296 70.2629 20.3574Z" fill="white"/>
<path fill-rule="evenodd" clip-rule="evenodd" d="M68.7707 19.7026C68.9024 19.7032 69.0341 19.7032 69.1671 19.7038C69.173 20.0235 69.1198 20.3823 68.8711 20.6069C68.6945 20.7703 68.4499 20.8149 68.2195 20.8375C68.2189 21.3989 68.2195 21.961 68.2195 22.5231C68.2213 22.8457 68.1019 23.176 67.8621 23.3959C67.5898 23.6698 67.1898 23.7744 66.8135 23.7565C66.39 23.7654 65.9392 23.5854 65.7059 23.2164C65.5582 22.9936 65.5109 22.7221 65.5139 22.4589C65.5139 21.6111 65.5133 20.7632 65.5145 19.9159H66.0083C66.0101 20.7864 66.0054 21.6568 66.0101 22.5266C66.006 22.8083 66.1342 23.1077 66.3911 23.2426C66.6983 23.3917 67.0823 23.3888 67.3806 23.2182C67.6388 23.062 67.7245 22.7393 67.7215 22.4542C67.7286 21.6081 67.7245 20.7614 67.7233 19.9153C67.8881 19.9159 68.0535 19.9159 68.2189 19.9165C68.2195 20.1031 68.2189 20.2897 68.2189 20.4762C68.3625 20.4513 68.5166 20.4115 68.6141 20.292C68.7518 20.1292 68.7405 19.9017 68.7707 19.7026Z" fill="white"/>
<path fill-rule="evenodd" clip-rule="evenodd" d="M35.0437 19.9166C35.4951 19.9202 35.9464 19.9065 36.3977 19.9249C36.7008 19.9362 37.0227 20.0117 37.2466 20.2309C37.4611 20.4531 37.5178 20.7847 37.4817 21.0829C37.4309 21.3723 37.2094 21.604 36.9459 21.7157C37.1072 21.7757 37.2714 21.8529 37.3807 21.992C37.6826 22.3669 37.656 22.9503 37.3624 23.3217C37.1427 23.5891 36.7858 23.6978 36.4515 23.7049C35.9818 23.7091 35.5122 23.7055 35.0431 23.7061C35.0437 22.4429 35.0425 21.1798 35.0437 19.9166ZM35.5506 20.3426C35.5518 20.7395 35.5506 21.1364 35.5512 21.5333C35.9263 21.5036 36.3304 21.6099 36.6836 21.446C37.0913 21.2659 37.1078 20.5601 36.676 20.4038C36.3127 20.2903 35.9239 20.3616 35.5506 20.3426ZM35.5506 21.9468C35.5518 22.399 35.5506 22.8505 35.5512 23.3027C35.944 23.2795 36.3581 23.3662 36.7344 23.2183C37.0464 23.0918 37.1456 22.7056 37.0647 22.4019C37.0233 22.1405 36.7658 21.9635 36.5135 21.9522C36.1927 21.9379 35.8714 21.9498 35.5506 21.9468Z" fill="white"/>
<path fill-rule="evenodd" clip-rule="evenodd" d="M39.1979 19.9398C39.6516 19.7954 40.1809 19.8643 40.5601 20.162C41.0818 20.5749 41.2023 21.2932 41.1639 21.9236C41.1834 22.4204 41.054 22.9408 40.7267 23.3229C40.1631 23.9485 39.0283 23.9045 38.5339 23.213C38.1404 22.6925 38.1345 22.0009 38.1824 21.3776C38.2332 20.765 38.5888 20.1341 39.1979 19.9398ZM39.4176 20.3373C39.1181 20.4133 38.8842 20.6599 38.7843 20.9486C38.6538 21.2558 38.6644 21.5939 38.668 21.9213C38.6538 22.2896 38.7241 22.677 38.9444 22.98C39.2841 23.4571 40.1088 23.4512 40.4266 22.9521C40.6541 22.6182 40.68 22.1964 40.6694 21.8042C40.6818 21.4162 40.6458 20.9985 40.4136 20.6735C40.2021 20.3557 39.7738 20.2404 39.4176 20.3373Z" fill="white"/>
<path fill-rule="evenodd" clip-rule="evenodd" d="M43.6456 20.1869C44.0857 19.8174 44.7473 19.7734 45.2566 20.0176C45.6819 20.219 45.9099 20.6866 45.9519 21.1405C45.7847 21.1393 45.6181 21.1393 45.4515 21.1411C45.4066 20.9023 45.3422 20.6456 45.1573 20.4763C44.807 20.1982 44.2523 20.2297 43.928 20.5351C43.6769 20.79 43.5924 21.1607 43.5741 21.5077C43.5706 21.9397 43.5369 22.3936 43.7194 22.7982C43.834 23.0632 44.0697 23.2878 44.3604 23.3335C44.6369 23.3787 44.95 23.3353 45.1697 23.1482C45.3576 22.9842 45.4025 22.7263 45.4533 22.4946C45.6205 22.4958 45.7876 22.4964 45.9554 22.4976C45.8993 22.9105 45.7227 23.349 45.3428 23.5593C45.0209 23.7649 44.6251 23.7809 44.257 23.7411C43.7803 23.6645 43.3798 23.3009 43.2173 22.8493C43.033 22.4263 43.082 21.9581 43.0773 21.5095C43.0826 21.0193 43.2616 20.506 43.6456 20.1869Z" fill="white"/>
<path fill-rule="evenodd" clip-rule="evenodd" d="M47.5215 19.9414C47.9769 19.7941 48.5098 19.863 48.8908 20.1625C49.3918 20.5617 49.5294 21.2504 49.4934 21.8617C49.52 22.3899 49.3924 22.9526 49.0303 23.3513C48.436 23.9704 47.2746 23.8842 46.8144 23.1439C46.467 22.6288 46.4676 21.9746 46.5119 21.3781C46.5627 20.7673 46.916 20.1381 47.5215 19.9414ZM47.7513 20.336C47.4506 20.4108 47.2137 20.658 47.1139 20.9485C46.9833 21.2557 46.9939 21.5944 46.9975 21.9217C46.9827 22.2895 47.0536 22.6763 47.2728 22.9787C47.6119 23.4564 48.4377 23.4517 48.7556 22.9526C48.9824 22.6199 49.0096 22.2004 48.9989 21.8095C49.0113 21.4185 48.9759 20.9978 48.7408 20.6711C48.5299 20.3562 48.1057 20.2415 47.7513 20.336Z" fill="white"/>
<path fill-rule="evenodd" clip-rule="evenodd" d="M50.2259 19.9166C50.3925 19.9154 50.5597 19.9154 50.7269 19.9166C51.3513 20.891 51.9787 21.8642 52.6043 22.838C52.5978 21.8636 52.6049 20.8892 52.6001 19.9148C52.765 19.916 52.9304 19.916 53.0964 19.9166C53.0964 21.1797 53.0958 22.4429 53.0964 23.7061C52.9304 23.7067 52.7656 23.7067 52.6001 23.7067C51.9745 22.7519 51.3708 21.7816 50.7375 20.8322C50.7281 21.7899 50.7357 22.7483 50.7334 23.7061C50.5638 23.7067 50.3943 23.7067 50.2253 23.7061C50.2253 22.4429 50.2247 21.1797 50.2259 19.9166Z" fill="white"/>
<path fill-rule="evenodd" clip-rule="evenodd" d="M54.1343 20.4619C54.5856 19.7567 55.6838 19.6783 56.3029 20.1958C56.5428 20.4067 56.6627 20.7222 56.7112 21.0317C56.5463 21.0329 56.3809 21.0329 56.2167 21.0329C56.16 20.841 56.105 20.6325 55.945 20.4994C55.7122 20.2772 55.3631 20.2605 55.0641 20.317C54.7564 20.3883 54.5242 20.6473 54.4344 20.9444C54.2974 21.3365 54.3411 21.7566 54.3387 22.1642C54.3677 22.6276 54.5945 23.1469 55.0677 23.2966C55.4493 23.4048 55.9107 23.3572 56.2167 23.0851C56.2173 22.8041 56.2161 22.5237 56.2179 22.2426C55.9296 22.2438 55.6413 22.2432 55.353 22.2432C55.3524 22.1012 55.3524 21.9592 55.3536 21.8172H56.7112C56.7117 22.2848 56.7123 22.753 56.7112 23.2206C56.4158 23.6246 55.8918 23.772 55.4133 23.7559C54.9507 23.7827 54.4769 23.5771 54.1969 23.2034C53.9092 22.8231 53.8153 22.3317 53.8277 21.863C53.8177 21.3829 53.8608 20.8707 54.1343 20.4619Z" fill="white"/>
<path fill-rule="evenodd" clip-rule="evenodd" d="M58.4255 19.9159H61.319C61.319 20.0579 61.319 20.1999 61.3196 20.3419C60.9214 20.3425 60.5232 20.3413 60.1257 20.3425C60.1268 21.4637 60.1257 22.5848 60.1263 23.706C59.9567 23.7066 59.7872 23.7066 59.6182 23.706C59.6188 22.5848 59.617 21.4637 59.6188 20.3425C59.2206 20.3413 58.8231 20.3425 58.4249 20.3419C58.4243 20.1999 58.4243 20.0579 58.4255 19.9159Z" fill="white"/>
<path fill-rule="evenodd" clip-rule="evenodd" d="M61.8637 19.9166C62.032 19.916 62.201 19.916 62.3705 19.9166C62.3711 20.4591 62.3717 21.0021 62.3705 21.5452C62.9938 21.5464 63.617 21.5452 64.2408 21.5458C64.2367 21.0021 64.242 20.4591 64.2379 19.9154C64.4027 19.916 64.5681 19.916 64.7335 19.9166C64.7347 21.1798 64.7335 22.4429 64.7341 23.7061C64.5687 23.7067 64.4039 23.7067 64.239 23.7061C64.2396 23.1232 64.239 22.541 64.2396 21.9581C63.6164 21.9587 62.9938 21.9581 62.3711 21.9587V23.7061C62.2016 23.7067 62.032 23.7067 61.8631 23.7061C61.8637 22.4429 61.8625 21.1798 61.8637 19.9166Z" fill="white"/>
<path fill-rule="evenodd" clip-rule="evenodd" d="M72.851 19.9166C73.0176 19.9154 73.1847 19.9154 73.3525 19.9166C73.9775 20.891 74.6043 21.8642 75.2299 22.838C75.2234 21.8636 75.2299 20.8892 75.2264 19.9148C75.3906 19.916 75.556 19.916 75.7214 19.9166C75.722 21.1797 75.7214 22.4429 75.722 23.7061C75.556 23.7067 75.3906 23.7067 75.2258 23.7067C74.6002 22.7435 73.9817 21.7757 73.3578 20.8114C73.3608 21.7763 73.3578 22.7412 73.359 23.7061C73.1889 23.7067 73.0199 23.7067 72.851 23.7061C72.851 22.4429 72.8504 21.1797 72.851 19.9166Z" fill="white"/>
<path fill-rule="evenodd" clip-rule="evenodd" d="M76.7948 20.4994C77.2231 19.7734 78.3171 19.6741 78.9546 20.1673C79.2145 20.3776 79.3456 20.708 79.3959 21.0324C79.2304 21.033 79.0656 21.033 78.902 21.033C78.8447 20.8416 78.7897 20.6331 78.6308 20.5C78.3963 20.2766 78.0448 20.2606 77.7447 20.3182C77.4375 20.3907 77.2065 20.6509 77.1179 20.948C76.9827 21.3389 77.0252 21.7578 77.024 22.1636C77.0524 22.6271 77.2786 23.1464 77.7518 23.2967C78.1334 23.4054 78.5948 23.3567 78.9008 23.0858C78.902 22.8047 78.9008 22.5237 78.9026 22.2427C78.6143 22.2438 78.326 22.2432 78.0377 22.2432C78.0365 22.1012 78.0371 21.9592 78.0383 21.8172H79.3959C79.3964 22.2854 79.397 22.7536 79.3953 23.2218C79.0993 23.6252 78.5747 23.7726 78.0956 23.756C77.6348 23.7821 77.1634 23.5777 76.8834 23.2058C76.5945 22.8267 76.5 22.3347 76.5124 21.866C76.5024 21.399 76.5419 20.9046 76.7948 20.4994Z" fill="white"/>
<path fill-rule="evenodd" clip-rule="evenodd" d="M39.5334 24.0834C39.7248 23.996 39.98 24.1363 39.9457 24.3626C39.9534 24.5765 39.7006 24.6805 39.5287 24.5973C39.3237 24.5129 39.3255 24.1606 39.5334 24.0834Z" fill="white"/>
<path fill-rule="evenodd" clip-rule="evenodd" d="M13.6983 3.70634C16.0926 3.33202 18.5955 3.70456 20.7778 4.76512C23.1142 5.88331 25.0642 7.78222 26.2634 10.0875C26.0508 10.1677 25.8606 10.2973 25.7081 10.466C21.9959 14.1848 18.2795 17.9 14.5672 21.6194C12.7082 19.7573 10.8479 17.8971 8.98822 16.0356C8.78264 15.8431 8.60483 15.6048 8.33722 15.4955C7.92074 15.3077 7.39793 15.4022 7.07538 15.7284C6.70085 16.1039 6.321 16.4747 5.95296 16.8561C5.55303 17.2869 5.58552 18.026 6.01263 18.4264C8.50972 20.9278 11.0098 23.4262 13.5074 25.927C13.6971 26.1165 13.879 26.3304 14.1354 26.4297C14.5389 26.5889 15.0375 26.5075 15.3458 26.1908C19.409 22.1322 23.4633 18.0646 27.5276 14.0071C27.8886 16.5608 27.4314 19.2256 26.2115 21.4964C25.0814 23.6312 23.3008 25.4083 21.1694 26.5271C18.8827 27.7439 16.2018 28.1872 13.648 27.776C10.8219 27.3351 8.17004 25.8456 6.32277 23.649C4.86067 21.9313 3.89244 19.7942 3.56103 17.5572C3.20244 15.1853 3.56221 12.7095 4.58716 10.5426C5.26829 9.08994 6.23829 7.77212 7.42688 6.69849C9.1684 5.11507 11.3772 4.05986 13.6983 3.70634ZM15.7363 6.38893C15.2543 6.59094 15.1804 7.24154 15.3488 7.68062C15.5237 8.15535 16.2101 8.27061 16.5527 7.9165C16.8209 7.62714 16.8357 7.18094 16.7311 6.81969C16.6041 6.41567 16.1138 6.22495 15.7363 6.38893ZM17.1624 6.38121C17.2475 6.98249 17.3166 7.58615 17.391 8.18862C17.5411 8.22664 17.6929 8.25695 17.8447 8.28606C18.1472 7.75489 18.4573 7.22788 18.7527 6.69254C18.5979 6.66165 18.4437 6.63016 18.2889 6.59986C18.1011 6.99437 17.8973 7.38057 17.7112 7.77628C17.6941 7.33779 17.6515 6.9005 17.6238 6.4632C17.4708 6.42993 17.3166 6.40616 17.1624 6.38121ZM13.7532 6.58738C13.4436 6.76622 13.3716 7.17202 13.4519 7.49762C13.4933 7.8149 13.6746 8.15416 14.0048 8.23734C14.367 8.31161 14.7646 8.17436 15.0044 7.89095C14.9625 7.65032 14.9164 7.41028 14.8662 7.17143C14.6358 7.2154 14.4048 7.26055 14.1744 7.3063C14.1892 7.40196 14.2045 7.49762 14.2193 7.59387C14.3179 7.57842 14.4166 7.56238 14.5153 7.54812C14.5324 7.64497 14.5442 7.74241 14.5537 7.84045C14.4219 7.8856 14.2795 7.95928 14.1389 7.90343C13.9942 7.8351 13.934 7.67587 13.8979 7.5303C13.856 7.34552 13.8164 7.14588 13.8843 6.96229C13.957 6.82385 14.113 6.79712 14.2547 6.7983C14.3262 6.8595 14.3877 6.9308 14.4355 7.0122C14.5696 6.99497 14.7025 6.96823 14.8331 6.93258C14.7716 6.79177 14.7025 6.64264 14.5667 6.55945C14.3209 6.41864 13.9954 6.45548 13.7532 6.58738ZM19.5815 7.00388C19.5018 7.60219 19.438 8.20228 19.3529 8.8C19.4899 8.87011 19.6276 8.93903 19.7652 9.00795C20.1965 8.57303 20.6183 8.1298 21.0448 7.69072C20.903 7.61883 20.7595 7.54991 20.6153 7.48395C20.3353 7.81311 20.0535 8.14109 19.7688 8.46609C19.8568 8.04246 19.9247 7.61407 20.0068 7.18926C19.8686 7.11915 19.7304 7.04666 19.5815 7.00388ZM10.9849 7.64972C11.2396 8.17198 11.4912 8.69543 11.7523 9.21412C12.108 9.03707 12.4671 8.86773 12.8222 8.68771C12.7737 8.58967 12.7259 8.49164 12.6774 8.3936C12.4435 8.49758 12.2167 8.617 11.9863 8.72989C11.9272 8.60987 11.8681 8.49045 11.809 8.37043C12.0034 8.2718 12.1983 8.17436 12.3927 8.07632C12.3466 7.98245 12.3005 7.88798 12.2545 7.7941C12.0577 7.89214 11.8587 7.98482 11.6614 8.08226C11.6052 7.9771 11.5603 7.86718 11.5166 7.75667C11.7482 7.64497 11.9821 7.53862 12.2102 7.41919C12.1599 7.32056 12.1103 7.22134 12.0613 7.12271C11.6998 7.29264 11.3512 7.4893 10.9849 7.64972ZM10.1668 8.20169C10.3836 8.48629 10.5903 8.77861 10.8089 9.06261C10.4373 8.88675 10.0587 8.7293 9.68353 8.56293C9.57306 8.64849 9.46141 8.73227 9.34917 8.81485C9.69535 9.27829 10.0362 9.74648 10.383 10.2099C10.4934 10.1232 10.6051 10.0382 10.7191 9.95562C10.5106 9.66687 10.3003 9.3793 10.0829 9.09767C10.4545 9.26463 10.8296 9.42564 11.2012 9.59319C11.3128 9.50882 11.4245 9.42445 11.5361 9.34008C11.1964 8.87486 10.8485 8.41558 10.507 7.95155C10.3924 8.03295 10.2784 8.11613 10.1668 8.20169ZM21.4518 7.95928C21.1109 8.4239 20.7624 8.88199 20.4215 9.34602C20.532 9.43455 20.6443 9.5213 20.7583 9.60567C20.9698 9.31513 21.1895 9.03053 21.4004 8.7388C21.3313 9.14164 21.3053 9.55041 21.2344 9.95325C21.3425 10.0483 21.4571 10.1357 21.5741 10.22C21.9203 9.75539 22.2676 9.29136 22.6126 8.82614C22.4986 8.74474 22.3864 8.66156 22.2765 8.57541C22.0621 8.8606 21.8435 9.14342 21.6397 9.43574C21.6875 9.02875 21.743 8.62235 21.7921 8.21476C21.6804 8.12683 21.5676 8.04127 21.4518 7.95928ZM18.4508 8.10781C18.2777 8.14287 18.2618 8.43638 18.4343 8.48688C18.5731 8.59145 18.7828 8.44589 18.761 8.2819C18.7332 8.14227 18.5796 8.07514 18.4508 8.10781ZM13.1394 8.16901C13.0012 8.18981 12.8824 8.33775 12.9545 8.47559C13.0218 8.64552 13.2694 8.61284 13.3521 8.4744C13.4578 8.33834 13.2971 8.12564 13.1394 8.16901ZM8.67276 9.47317C9.07624 9.88967 9.48209 10.3044 9.90093 10.7054C9.99663 10.608 10.0923 10.5112 10.1886 10.4143C9.78042 10.0026 9.37221 9.59141 8.96282 9.18145C8.86594 9.27829 8.76906 9.37514 8.67276 9.47317ZM7.67086 10.6502C8.11864 11.0162 8.57706 11.3685 9.03135 11.7262C9.26765 11.4238 9.50217 11.1196 9.74024 10.8189C9.6534 10.7512 9.56479 10.6858 9.47441 10.6229C9.32613 10.8106 9.18317 11.0031 9.02958 11.1879C8.66568 10.895 8.29705 10.608 7.93079 10.3181C7.84395 10.4286 7.75711 10.5391 7.67086 10.6502ZM7.32468 11.16C7.26265 11.2865 7.19885 11.4125 7.13209 11.5373C7.44578 11.7012 7.76006 11.8658 8.06902 12.0393C7.66259 12.0328 7.25674 12.0708 6.85031 12.0761C6.78414 12.1991 6.71916 12.3227 6.65654 12.4481C7.16813 12.7143 7.67145 12.9959 8.18717 13.2544C8.25392 13.1302 8.31891 13.0048 8.38448 12.88C8.06666 12.7137 7.74884 12.5473 7.43219 12.378C7.84395 12.3881 8.25392 12.3441 8.66568 12.3429C8.73361 12.2205 8.79505 12.094 8.8559 11.9674C8.34372 11.7012 7.83567 11.4273 7.32468 11.16ZM6.75874 13.1605C6.24597 13.2532 6.00672 13.9596 6.34699 14.3517C6.60397 14.6358 7.02517 14.7576 7.39734 14.694C7.92311 14.5936 8.15054 13.8384 7.76301 13.4647C7.50131 13.2181 7.11201 13.1005 6.75874 13.1605Z" fill="#DA282D"/>
<path fill-rule="evenodd" clip-rule="evenodd" d="M28.0014 6.23867C45.3505 6.23867 62.699 6.23807 80.0474 6.23867C80.6807 6.23926 81.3128 6.449 81.8185 6.83341C82.5168 7.35151 82.9545 8.19343 83 9.06326V22.4216C82.9545 23.3805 82.4234 24.2991 81.6088 24.8017C81.1261 25.1071 80.5549 25.2604 79.9866 25.2521C62.6139 25.2503 45.2412 25.2527 27.8685 25.2509C28.9561 23.8362 29.8056 22.2356 30.3567 20.5351C31.1861 18.0082 31.3533 15.2662 30.8435 12.6549C30.3957 10.3365 29.4163 8.12391 28.0014 6.23867ZM53.0698 7.03542C53.0733 7.4953 53.3055 7.98725 53.7598 8.14768C54.2129 8.30394 54.7239 8.29978 55.1823 8.16491C55.6632 8.02469 55.9585 7.5256 55.9367 7.03542C55.6567 7.03364 55.3772 7.03424 55.0978 7.03483C55.073 7.19822 55.0423 7.40202 54.8686 7.46975C54.6364 7.56244 54.3635 7.5666 54.1319 7.47034C53.9612 7.39845 53.9358 7.19525 53.9104 7.03483C53.6298 7.03483 53.3498 7.03364 53.0698 7.03542ZM77.4718 7.07167C77.1835 7.46975 76.8917 7.86486 76.6063 8.26413C76.9242 8.26591 77.2426 8.26532 77.5616 8.26472C77.9964 7.86783 78.4288 7.46797 78.8648 7.07167C78.3999 7.07048 77.9355 7.06929 77.4718 7.07167ZM40.4904 7.84585C40.7179 7.98131 40.9453 8.11619 41.1733 8.25106C41.3192 7.92962 41.7257 7.87021 42.0216 8.00211C42.3678 8.14768 42.7418 8.3081 43.124 8.20828C43.5139 8.1453 43.8145 7.84109 43.9551 7.48163C43.7283 7.34854 43.502 7.21426 43.2764 7.0782C43.1287 7.38538 42.7447 7.45965 42.4511 7.33666C42.086 7.18872 41.6944 7.01166 41.2944 7.12811C40.9152 7.19585 40.631 7.49767 40.4904 7.84585ZM41.1969 8.57844C40.7155 11.0982 40.247 13.6198 39.7679 16.1396C40.1956 16.139 40.6239 16.1467 41.0516 16.1372C41.1639 15.6946 41.22 15.2276 41.3051 14.7748C41.8739 14.7742 42.4428 14.7742 43.0123 14.7748C43.0956 15.23 43.1695 15.6869 43.2575 16.1414C43.7295 16.1402 44.2021 16.1414 44.6747 16.1408C44.2062 13.6192 43.7248 11.1 43.2522 8.57903C42.5669 8.57903 41.8816 8.58022 41.1969 8.57844ZM63.2241 9.34014C62.8886 9.86596 62.9489 10.516 62.9447 11.1113C62.9453 12.1802 62.9441 13.2491 62.9453 14.3173C62.9477 14.7986 63.0581 15.3137 63.4049 15.6673C63.806 16.0939 64.4192 16.2234 64.9822 16.221C65.5546 16.2347 66.1797 16.1319 66.6121 15.7225C66.9807 15.3827 67.1195 14.8652 67.126 14.3768C67.1349 13.5651 67.1272 12.7541 67.1296 11.9431C66.4738 11.9419 65.8175 11.9425 65.1618 11.9425C65.1618 12.3008 65.1612 12.6597 65.1624 13.0179C65.3721 13.0185 65.5824 13.0185 65.7933 13.0185C65.7909 13.4719 65.7945 13.9252 65.7915 14.3791C65.7886 14.5811 65.772 14.8093 65.6208 14.9608C65.4347 15.1343 65.1612 15.1622 64.9202 15.1331C64.7359 15.1105 64.5397 15.0274 64.447 14.8568C64.3365 14.656 64.3619 14.4183 64.3566 14.1979C64.3649 12.867 64.3436 11.5349 64.3672 10.204C64.3844 9.47026 65.661 9.42391 65.7697 10.1268C65.814 10.4762 65.7833 10.8303 65.7933 11.1814C66.2381 11.1826 66.6836 11.1826 67.1296 11.1814C67.1201 10.677 67.1739 10.1547 67.0067 9.6693C66.8744 9.27003 66.569 8.93552 66.1867 8.76559C65.6988 8.5416 65.1476 8.53328 64.6224 8.57249C64.0807 8.62359 63.5189 8.85828 63.2241 9.34014ZM34.9398 8.61587C34.9403 9.72455 34.9398 10.8332 34.9398 11.9419C34.7873 11.9425 34.6349 11.9425 34.4831 11.9431C34.4831 12.2616 34.4825 12.5806 34.4837 12.8991C34.6355 12.8997 34.7879 12.8997 34.9403 12.8997C34.9392 13.9864 34.9403 15.0737 34.9398 16.1604C35.7379 16.1604 36.536 16.1634 37.3346 16.1592C37.874 16.1461 38.4612 16.0089 38.834 15.587C39.1695 15.2121 39.2522 14.6869 39.2504 14.1991C39.2498 12.9722 39.2516 11.7453 39.2493 10.5177C39.2469 10.049 39.1553 9.54809 38.8334 9.18922C38.4606 8.76738 37.8734 8.63013 37.3335 8.61705C36.5354 8.6129 35.7373 8.61587 34.9398 8.61587ZM47.2864 8.61587C47.287 9.72455 47.2864 10.8332 47.2864 11.9419C47.134 11.9425 46.9815 11.9425 46.8297 11.9431C46.8291 12.2616 46.8291 12.58 46.8303 12.8991C46.9821 12.8997 47.134 12.8997 47.287 12.8997C47.2864 13.9888 47.2864 15.0773 47.287 16.1663C48.0266 16.1669 48.7668 16.1711 49.507 16.1646C49.9967 16.1628 50.5142 16.0962 50.9283 15.8116C51.2532 15.5906 51.46 15.227 51.5386 14.8455C51.6171 14.4576 51.5935 14.0595 51.5971 13.6656C51.5965 12.6169 51.5982 11.5682 51.5965 10.5201C51.5935 10.0501 51.5019 9.54868 51.18 9.18863C50.8084 8.76856 50.2236 8.63072 49.686 8.61705C48.8861 8.6129 48.0862 8.61587 47.2864 8.61587ZM53.4821 8.61527C53.0042 11.1315 52.5334 13.6495 52.0561 16.1663C52.4891 16.1687 52.9215 16.1669 53.3545 16.1675C53.4325 15.7118 53.5176 15.2579 53.5926 14.8022C54.1609 14.7992 54.7298 14.8016 55.2987 14.8016C55.3802 15.2567 55.4558 15.713 55.5427 16.1669C56.0147 16.1675 56.4873 16.1681 56.9593 16.1669C56.4932 13.6489 56.0105 11.1333 55.5415 8.61587C54.8544 8.61468 54.168 8.61587 53.4821 8.61527ZM57.6144 8.61587C57.615 11.1327 57.6144 13.6501 57.615 16.1669C58.0374 16.1675 58.4604 16.1681 58.8833 16.1669C58.8827 14.3518 58.8863 12.5367 58.8816 10.7221C59.454 12.5385 60.0347 14.3524 60.6124 16.1669C61.0886 16.1652 61.5659 16.1729 62.0426 16.164C62.0828 16.0962 62.0509 16.0024 62.0621 15.9257C62.0592 13.4891 62.061 11.0525 62.061 8.61587C61.6409 8.61468 61.2209 8.61527 60.8015 8.61587C60.8015 10.1048 60.8021 11.5943 60.8015 13.0833C60.3259 11.5949 59.8533 10.1048 59.3813 8.61527C58.7924 8.61527 58.2034 8.61468 57.6144 8.61587ZM70.0301 8.61587C70.0307 11.1327 70.0301 13.6495 70.0301 16.1663C70.5022 16.1687 70.9742 16.1675 71.4462 16.1669C71.4509 15.3928 71.4379 14.6186 71.4521 13.845C71.5744 13.6097 71.735 13.3958 71.8668 13.1647C72.3163 14.1664 72.7688 15.1664 73.2214 16.1669C73.704 16.1681 74.1872 16.1681 74.6711 16.1663C74.0254 14.7683 73.3714 13.3738 72.7275 11.9752C73.3779 10.857 74.0218 9.73525 74.6693 8.61587C74.1973 8.61468 73.7259 8.61527 73.255 8.61587C72.6525 9.70554 72.0393 10.7893 71.4438 11.8831C71.4491 10.794 71.445 9.70495 71.4462 8.61527C70.9742 8.61527 70.5022 8.61468 70.0301 8.61587ZM74.8323 8.61705C75.3788 10.1844 75.9293 11.7506 76.477 13.318C76.5266 13.4695 76.6046 13.6192 76.5963 13.7838C76.5939 14.5782 76.5945 15.3726 76.5951 16.1669C77.0671 16.1675 77.5385 16.1687 78.0106 16.1663C78.0218 15.3161 77.9887 14.4623 78.0271 13.6139C78.6042 11.9461 79.1932 10.2825 79.7733 8.61527C79.3238 8.61527 78.8742 8.61468 78.4247 8.61587C78.0732 9.75664 77.7169 10.8956 77.3654 12.0364C77.0169 10.8944 76.6595 9.75604 76.3051 8.61587C75.8141 8.61527 75.3232 8.61408 74.8323 8.61705ZM35.0313 17.7058C35.0307 17.8442 35.0307 17.9827 35.0313 18.1217H79.3374C79.3368 17.9827 79.3368 17.8442 79.3374 17.7058H35.0313ZM39.5287 18.8971C39.319 19.1514 39.0833 19.3831 38.8771 19.6403C39.02 19.6415 39.1636 19.6409 39.3077 19.638C39.4271 19.4924 39.5505 19.3492 39.6752 19.2072C39.8046 19.3439 39.9203 19.493 40.0521 19.6279C40.1897 19.6617 40.3368 19.6338 40.478 19.6374C40.26 19.3866 40.0391 19.1383 39.817 18.8917C39.7201 18.8935 39.6238 18.8953 39.5287 18.8971ZM47.8576 18.8971C47.6485 19.152 47.4128 19.3831 47.2066 19.6403C47.3502 19.6421 47.4937 19.6409 47.6379 19.638C47.7572 19.4918 47.8807 19.3492 48.0047 19.2072C48.1347 19.3516 48.2635 19.4977 48.3934 19.6433C48.5311 19.6415 48.6693 19.6403 48.8075 19.638C48.5902 19.3866 48.3686 19.1389 48.1465 18.8917C48.0496 18.8935 47.9533 18.8953 47.8576 18.8971ZM72.08 19.572C72.0546 19.7574 72.0576 19.9683 71.9247 20.1163C71.8467 20.2131 71.7232 20.244 71.6122 20.2814C71.1088 19.7788 70.2334 19.7217 69.6816 20.1745C69.2551 20.5238 69.082 21.0954 69.0779 21.6325C69.0495 22.1994 69.1133 22.8167 69.4902 23.2682C70.0544 23.98 71.3251 23.9188 71.7853 23.1209C72.1226 22.6087 72.0818 21.9712 72.0647 21.3854C72.0422 21.1127 71.9613 20.8471 71.8372 20.6047C72.0103 20.547 72.1899 20.471 72.2992 20.3159C72.464 20.1062 72.4953 19.8317 72.5125 19.5744C72.3677 19.5726 72.2236 19.5726 72.08 19.572ZM68.7707 19.7027C68.7405 19.9018 68.7518 20.1293 68.6141 20.2921C68.5166 20.4116 68.3625 20.4514 68.2189 20.4763C68.2189 20.2898 68.2195 20.1032 68.2189 19.9166C68.0535 19.916 67.8881 19.916 67.7233 19.9154C67.7245 20.7615 67.7286 21.6082 67.7215 22.4542C67.7245 22.7394 67.6388 23.0621 67.3806 23.2183C67.0823 23.3888 66.6983 23.3918 66.3911 23.2427C66.1342 23.1078 66.006 22.8084 66.0101 22.5267C66.0054 21.6569 66.0101 20.7865 66.0083 19.916H65.5145C65.5133 20.7633 65.5139 21.6111 65.5139 22.459C65.5109 22.7222 65.5582 22.9937 65.7059 23.2165C65.9392 23.5855 66.39 23.7655 66.8135 23.7566C67.1898 23.7745 67.5898 23.6699 67.8621 23.396C68.1019 23.1761 68.2213 22.8458 68.2195 22.5232C68.2195 21.9611 68.2189 21.399 68.2195 20.8376C68.4499 20.815 68.6945 20.7704 68.8711 20.607C69.1198 20.3824 69.173 20.0236 69.1671 19.7039C69.0341 19.7033 68.9024 19.7033 68.7707 19.7027ZM35.0437 19.9166C35.0425 21.1798 35.0437 22.443 35.0431 23.7061C35.5122 23.7055 35.9818 23.7091 36.4515 23.7049C36.7858 23.6978 37.1426 23.5891 37.3624 23.3217C37.656 22.9504 37.6826 22.3669 37.3807 21.992C37.2714 21.853 37.1072 21.7757 36.9459 21.7157C37.2094 21.604 37.4309 21.3723 37.4817 21.0829C37.5178 20.7847 37.4611 20.4531 37.2466 20.2309C37.0227 20.0117 36.7008 19.9362 36.3977 19.9249C35.9464 19.9065 35.4951 19.9202 35.0437 19.9166ZM39.1979 19.9398C38.5888 20.1341 38.2332 20.7651 38.1824 21.3776C38.1345 22.0009 38.1404 22.6925 38.5339 23.213C39.0283 23.9046 40.1631 23.9485 40.7267 23.3229C41.054 22.9409 41.1834 22.4204 41.1639 21.9237C41.2023 21.2933 41.0818 20.5749 40.5601 20.162C40.1809 19.8643 39.6516 19.7954 39.1979 19.9398ZM43.6456 20.187C43.2616 20.506 43.0826 21.0194 43.0773 21.5095C43.082 21.9581 43.033 22.4263 43.2173 22.8494C43.3798 23.3009 43.7803 23.6645 44.257 23.7412C44.6251 23.781 45.0209 23.7649 45.3428 23.5594C45.7227 23.349 45.8993 22.9106 45.9554 22.4976C45.7876 22.4964 45.6205 22.4958 45.4533 22.4946C45.4025 22.7264 45.3576 22.9842 45.1697 23.1482C44.95 23.3354 44.6369 23.3787 44.3604 23.3336C44.0698 23.2878 43.834 23.0633 43.7194 22.7983C43.5369 22.3936 43.5706 21.9397 43.5741 21.5078C43.5924 21.1608 43.6769 20.79 43.928 20.5351C44.2523 20.2297 44.807 20.1983 45.1573 20.4763C45.3422 20.6456 45.4066 20.9023 45.4515 21.1412C45.6181 21.1394 45.7847 21.1394 45.9519 21.1406C45.9099 20.6866 45.6819 20.219 45.2566 20.0176C44.7473 19.7734 44.0857 19.8174 43.6456 20.187ZM47.5215 19.9416C46.916 20.1382 46.5627 20.7675 46.5119 21.3782C46.4676 21.9748 46.467 22.6289 46.8144 23.1441C47.2746 23.8844 48.436 23.9705 49.0303 23.3514C49.3924 22.9527 49.52 22.3901 49.4934 21.8619C49.5294 21.2505 49.3918 20.5619 48.8908 20.1626C48.5098 19.8632 47.977 19.7942 47.5215 19.9416ZM50.2259 19.9166C50.2247 21.1798 50.2253 22.443 50.2253 23.7061C50.3943 23.7067 50.5638 23.7067 50.7334 23.7061C50.7357 22.7484 50.7281 21.79 50.7375 20.8322C51.3708 21.7817 51.9745 22.7519 52.6001 23.7067C52.7656 23.7067 52.9304 23.7067 53.0964 23.7061C53.0958 22.443 53.0964 21.1798 53.0964 19.9166C52.9304 19.916 52.765 19.916 52.6001 19.9148C52.6049 20.8893 52.5978 21.8637 52.6043 22.8381C51.9787 21.8643 51.3513 20.891 50.7269 19.9166C50.5597 19.9154 50.3925 19.9154 50.2259 19.9166ZM54.1343 20.4621C53.8608 20.8708 53.8177 21.383 53.8277 21.8631C53.8153 22.3319 53.9092 22.8232 54.1969 23.2035C54.4769 23.5772 54.9507 23.7828 55.4133 23.756C55.8918 23.7721 56.4158 23.6247 56.7112 23.2207C56.7123 22.7531 56.7117 22.2849 56.7112 21.8173H55.3536C55.3524 21.9593 55.3524 22.1013 55.353 22.2433C55.6413 22.2433 55.9296 22.2439 56.2179 22.2427C56.2161 22.5238 56.2173 22.8042 56.2167 23.0852C55.9107 23.3574 55.4493 23.4049 55.0677 23.2968C54.5945 23.147 54.3677 22.6277 54.3387 22.1643C54.3411 21.7567 54.2974 21.3366 54.4344 20.9445C54.5242 20.6474 54.7564 20.3884 55.0642 20.3171C55.3631 20.2606 55.7122 20.2773 55.945 20.4995C56.105 20.6326 56.16 20.8411 56.2167 21.033C56.3809 21.033 56.5463 21.033 56.7112 21.0318C56.6627 20.7223 56.5428 20.4068 56.3029 20.1959C55.6838 19.6784 54.5856 19.7568 54.1343 20.4621ZM58.4255 19.916C58.4243 20.058 58.4243 20.2 58.4249 20.342C58.8231 20.3426 59.2206 20.3414 59.6188 20.3426C59.617 21.4638 59.6188 22.585 59.6182 23.7061C59.7872 23.7067 59.9567 23.7067 60.1263 23.7061C60.1257 22.585 60.1269 21.4638 60.1257 20.3426C60.5232 20.3414 60.9214 20.3426 61.3196 20.342C61.319 20.2 61.319 20.058 61.319 19.916H58.4255ZM61.8637 19.9166C61.8625 21.1798 61.8637 22.443 61.8631 23.7061C62.032 23.7067 62.2016 23.7067 62.3711 23.7061V21.9587C62.9938 21.9581 63.6164 21.9587 64.2396 21.9581C64.239 22.541 64.2396 23.1233 64.239 23.7061C64.4039 23.7067 64.5687 23.7067 64.7341 23.7061C64.7335 22.443 64.7347 21.1798 64.7335 19.9166C64.5681 19.916 64.4027 19.916 64.2379 19.9154C64.242 20.4591 64.2367 21.0021 64.2408 21.5458C63.617 21.5452 62.9938 21.5464 62.3705 21.5452C62.3717 21.0021 62.3711 20.4591 62.3705 19.9166C62.201 19.916 62.032 19.916 61.8637 19.9166ZM72.851 19.9166C72.8504 21.1798 72.851 22.443 72.851 23.7061C73.0199 23.7067 73.1889 23.7067 73.359 23.7061C73.3578 22.7412 73.3608 21.7763 73.3578 20.8114C73.9817 21.7757 74.6002 22.7436 75.2258 23.7067C75.3906 23.7067 75.556 23.7067 75.722 23.7061C75.7214 22.443 75.722 21.1798 75.7214 19.9166C75.556 19.916 75.3906 19.916 75.2264 19.9148C75.2299 20.8893 75.2234 21.8637 75.2299 22.8381C74.6043 21.8643 73.9775 20.891 73.3525 19.9166C73.1847 19.9154 73.0176 19.9154 72.851 19.9166ZM76.7948 20.4995C76.542 20.9047 76.5024 21.399 76.5124 21.866C76.5 22.3348 76.5945 22.8268 76.8834 23.2058C77.1634 23.5778 77.6348 23.7822 78.0956 23.756C78.5747 23.7727 79.0993 23.6253 79.3953 23.2219C79.397 22.7537 79.3964 22.2855 79.3958 21.8173H78.0383C78.0371 21.9593 78.0365 22.1013 78.0377 22.2433C78.326 22.2433 78.6143 22.2439 78.9026 22.2427C78.9008 22.5238 78.902 22.8048 78.9008 23.0858C78.5948 23.3568 78.1334 23.4055 77.7518 23.2968C77.2786 23.1464 77.0524 22.6271 77.024 22.1637C77.0252 21.7579 76.9826 21.339 77.1179 20.9481C77.2065 20.651 77.4375 20.3908 77.7447 20.3183C78.0448 20.2606 78.3963 20.2767 78.6308 20.5001C78.7897 20.6332 78.8447 20.8417 78.902 21.033C79.0656 21.033 79.2304 21.033 79.3958 21.0324C79.3456 20.708 79.2145 20.3777 78.9546 20.1674C78.3171 19.6742 77.2231 19.7734 76.7948 20.4995ZM39.5334 24.0834C39.3255 24.1606 39.3237 24.513 39.5287 24.5973C39.7006 24.6805 39.9534 24.5766 39.9457 24.3627C39.98 24.1363 39.7248 23.9961 39.5334 24.0834Z" fill="#DA282D"/>
<path fill-rule="evenodd" clip-rule="evenodd" d="M15.9212 6.69019C16.0642 6.6385 16.2432 6.69197 16.2999 6.84289C16.395 7.07936 16.3826 7.35386 16.2993 7.59211C16.2414 7.78343 15.9809 7.86008 15.8356 7.71926C15.6897 7.56062 15.6944 7.32534 15.7032 7.12392C15.7222 6.96469 15.7517 6.75733 15.9212 6.69019Z" fill="#DA282D"/>
<path fill-rule="evenodd" clip-rule="evenodd" d="M36.3552 9.69117C36.7108 9.70543 37.0735 9.65433 37.4244 9.73098C37.6956 9.79574 37.845 10.0768 37.8326 10.343C37.8356 11.7071 37.8362 13.0713 37.8326 14.4349C37.8409 14.6868 37.7127 14.9571 37.4593 15.0332C37.1001 15.133 36.7226 15.0771 36.3558 15.0908C36.3558 14.3606 36.357 13.6298 36.3552 12.8996C36.6411 12.899 36.9276 12.9002 37.2141 12.899C37.2147 12.5799 37.2141 12.2615 37.2147 11.9424C36.9282 11.9418 36.6417 11.943 36.3558 11.9418C36.3558 11.1914 36.357 10.4416 36.3552 9.69117Z" fill="#DA282D"/>
<path fill-rule="evenodd" clip-rule="evenodd" d="M48.7018 9.69127C49.0562 9.70553 49.4178 9.65502 49.7681 9.73048C50.0398 9.79346 50.1911 10.0739 50.1793 10.3407C50.1828 11.7048 50.1828 13.0696 50.1793 14.4344C50.1875 14.6851 50.0611 14.9554 49.8089 15.0321C49.4491 15.1343 49.0704 15.0772 48.7024 15.0909C48.7024 14.3607 48.703 13.6299 48.7018 12.8997C48.9877 12.8991 49.2742 12.9003 49.5607 12.8991C49.5613 12.58 49.5607 12.2616 49.5613 11.9425C49.2748 11.9419 48.9883 11.9431 48.7024 11.9419C48.7024 11.1915 48.703 10.4417 48.7018 9.69127Z" fill="#DA282D"/>
<path fill-rule="evenodd" clip-rule="evenodd" d="M41.4888 13.6904C41.7068 12.4302 41.9377 11.1718 42.1534 9.91162C42.369 11.1718 42.6006 12.4302 42.818 13.6904C42.3749 13.6875 41.9318 13.688 41.4888 13.6904Z" fill="#DA282D"/>
<path fill-rule="evenodd" clip-rule="evenodd" d="M53.7769 13.7249C53.9937 12.4635 54.2247 11.2051 54.4415 9.94373C54.6583 11.2051 54.8881 12.4641 55.1085 13.7249H53.7769Z" fill="#DA282D"/>
<path fill-rule="evenodd" clip-rule="evenodd" d="M6.70499 13.5865C6.97968 13.5319 7.2851 13.6085 7.5084 13.7778C7.7063 13.9097 7.62005 14.2633 7.38375 14.2858C7.13328 14.3167 6.87158 14.2306 6.65832 14.1017C6.46337 13.987 6.49941 13.6673 6.70499 13.5865Z" fill="#DA282D"/>
<path fill-rule="evenodd" clip-rule="evenodd" d="M35.5506 20.3426C35.9239 20.3616 36.3126 20.2903 36.676 20.4038C37.1078 20.56 37.0913 21.2659 36.6836 21.4459C36.3304 21.6099 35.9263 21.5035 35.5512 21.5332C35.5506 21.1364 35.5518 20.7395 35.5506 20.3426Z" fill="#DA282D"/>
<path fill-rule="evenodd" clip-rule="evenodd" d="M39.4176 20.3372C39.7738 20.2404 40.2021 20.3557 40.4136 20.6735C40.6458 20.9985 40.6818 21.4162 40.6694 21.8042C40.68 22.1963 40.6541 22.6182 40.4266 22.9521C40.1088 23.4512 39.2841 23.4571 38.9444 22.98C38.7241 22.677 38.6538 22.2896 38.668 21.9212C38.6644 21.5939 38.6538 21.2558 38.7843 20.9486C38.8842 20.6599 39.1181 20.4133 39.4176 20.3372Z" fill="#DA282D"/>
<path fill-rule="evenodd" clip-rule="evenodd" d="M47.7513 20.3361C48.1057 20.2416 48.5299 20.3563 48.7408 20.6712C48.9759 20.9979 49.0114 21.4186 48.9989 21.8096C49.0096 22.2005 48.9824 22.62 48.7556 22.9527C48.4377 23.4518 47.6119 23.4565 47.2728 22.9788C47.0536 22.6764 46.9827 22.2896 46.9975 21.9219C46.9939 21.5945 46.9833 21.2558 47.1139 20.9486C47.2137 20.6581 47.4506 20.4109 47.7513 20.3361Z" fill="#DA282D"/>
<path fill-rule="evenodd" clip-rule="evenodd" d="M70.2629 20.3574C70.628 20.2297 71.0911 20.3307 71.318 20.6616C71.572 21.0068 71.5885 21.4548 71.5773 21.8672C71.5903 22.2563 71.5478 22.6764 71.305 22.9955C70.9564 23.4702 70.1306 23.4375 69.824 22.9331C69.5327 22.4976 69.5694 21.9521 69.5824 21.453C69.6143 21.011 69.8092 20.5095 70.2629 20.3574Z" fill="#DA282D"/>
<path fill-rule="evenodd" clip-rule="evenodd" d="M35.5506 21.9468C35.8714 21.9498 36.1927 21.9379 36.5135 21.9521C36.7658 21.9634 37.0233 22.1405 37.0647 22.4019C37.1456 22.7055 37.0464 23.0917 36.7344 23.2183C36.3581 23.3662 35.944 23.2795 35.5512 23.3026C35.5506 22.8505 35.5518 22.3989 35.5506 21.9468Z" fill="#DA282D"/>
</g>
<defs>
<clipPath id="clip0_1_312">
<rect width="83" height="32" fill="white"/>
</clipPath>
</defs>
</svg>
