<svg width="32" height="33" viewBox="0 0 32 33" fill="none" xmlns="http://www.w3.org/2000/svg">
<path opacity="0.01" d="M31 6.6665H1V26.6665H31V6.6665Z" fill="white"/>
<path d="M19.5672 10.1254H12.3877V23.0501H19.5672V10.1254Z" fill="#FF5F00"/>
<path d="M12.8434 16.5889C12.8407 14.0664 13.9964 11.6828 15.9773 10.1254C12.6131 7.477 7.78209 7.86276 4.87927 11.0116C1.97644 14.1604 1.97644 19.0151 4.87927 22.1639C7.78209 25.3127 12.6131 25.6985 15.9773 23.0501C13.997 21.4931 12.8414 19.1106 12.8434 16.5889Z" fill="#EB001B"/>
<path d="M29.2539 16.5889C29.2538 19.7358 27.46 22.6064 24.6343 23.9815C21.8087 25.3567 18.4472 24.995 15.9775 23.0501C17.9569 21.4918 19.1126 19.1096 19.1126 16.5877C19.1126 14.0659 17.9569 11.6837 15.9775 10.1254C18.4472 8.18047 21.8087 7.81877 24.6343 9.19394C27.46 10.5691 29.2538 13.4397 29.2539 16.5866V16.5889Z" fill="#F79E1B"/>
</svg>
