<svg width="32" height="32" viewBox="0 0 32 32" fill="none" xmlns="http://www.w3.org/2000/svg">
<g clip-path="url(#clip0_1_434)">
<path d="M17.3719 5.98838L15.7015 7.73713L15.6179 7.82338L15.0866 8.38088L14.6901 8.79588L14.1588 9.35213L14.0764 9.43838L13.8448 9.68088L13.7624 9.76838H13.7612L12.9779 10.5871V10.5884L12.8955 10.6746C12.6675 10.9139 12.4082 11.118 12.1254 11.2809C11.9857 11.3609 11.8436 11.4309 11.6967 11.4896C11.3728 11.6201 11.0318 11.6981 10.6854 11.7209C10.474 11.7359 10.2603 11.7296 10.0501 11.7034C9.59642 11.6471 9.14985 11.4946 8.74388 11.2484C8.56955 11.1434 8.39164 11.0334 8.24358 10.8796C8.24239 10.8796 8.24239 10.8796 8.24119 10.8784C8.20895 10.8459 8.17671 10.8121 8.14328 10.7759L5.10089 7.59088L5.03642 7.52338C4.98388 7.46213 4.93612 7.39588 4.89552 7.32463C4.79061 7.13921 4.73534 6.92763 4.73552 6.71213C4.73552 6.67713 4.73671 6.64213 4.7403 6.60838C4.74507 6.55588 4.75224 6.50588 4.76179 6.45838C4.76656 6.43963 4.77015 6.41963 4.77492 6.40213C4.77731 6.39463 4.7797 6.38588 4.78089 6.37838C4.82388 6.22838 4.89433 6.08713 4.99224 5.96088C5.01851 5.92838 5.04477 5.89588 5.07462 5.86463L5.12836 5.80963L8.37015 2.41588H8.37134L10.3355 0.359629C10.7737 -0.0991211 11.471 -0.119121 11.9307 0.300879L17.3719 5.98838Z" fill="#085CA8"/>
<path d="M11.4543 13.6296C11.1928 13.6296 10.9349 13.5684 10.6889 13.4509L10.0657 12.7996L9.91283 12.6409L9.88656 12.6121L9.59641 12.3084L8.14447 10.7721C8.17671 10.8071 8.20895 10.8409 8.24238 10.8746C8.39044 11.0284 8.56954 11.1396 8.74507 11.2446C9.15223 11.4909 9.5976 11.6434 10.0513 11.6996C10.2615 11.7271 10.4752 11.7321 10.6866 11.7171C11.0304 11.6946 11.3719 11.6171 11.6979 11.4859C11.8436 11.4271 11.9869 11.3584 12.1266 11.2771C12.4024 11.1171 12.6615 10.9159 12.8967 10.6709L12.9791 10.5846V10.5834L13.7624 9.76461H13.7636L13.846 9.67711L14.0776 9.43461L14.16 9.34836L14.6913 8.79211L15.0878 8.37711L15.6191 7.81961L15.7027 7.73336L19.0698 4.20836L20.4585 2.63336L20.4669 2.62461L20.5409 2.54711C20.9648 2.10336 21.6525 2.10336 22.0764 2.54711L22.837 3.34336H22.8382L22.8633 3.36961C22.5266 3.35211 22.1875 3.47961 21.9331 3.73961L19.36 6.38836L19.3337 6.42086L14.8561 11.0334L14.8501 11.0271L13.2012 12.7234L13.1904 12.7371C13.1857 12.7434 13.1498 12.7846 13.0913 12.8459C12.9612 12.9784 12.6901 13.2284 12.3272 13.4084C12.1624 13.4896 11.9952 13.5484 11.8292 13.5846C11.7313 13.6046 11.6298 13.6184 11.5319 13.6234H11.4543V13.6296Z" fill="#EB2227"/>
<path d="M26.954 9.26838L26.8716 9.35588L23.2251 13.2309L19.3958 17.3009C19.2763 17.4268 19.1477 17.5429 19.0113 17.6484C19.0066 17.6534 19.0018 17.6571 18.9958 17.6621C18.9779 17.6759 18.9588 17.6909 18.9397 17.7046C18.9373 17.7071 18.9349 17.7084 18.9337 17.7109C18.3361 18.1584 17.6195 18.3984 16.8848 18.3971C15.9415 18.3971 15.0854 18.0096 14.4513 17.3796L14.449 17.3771L14.363 17.2984L13.7039 16.6084L11.8531 14.6696L11.2358 14.0234L11.1499 13.9334C11.2502 13.9509 11.3516 13.9584 11.4543 13.9584H11.4579L11.5403 13.9571C11.6585 13.9521 11.7755 13.9384 11.8913 13.9134C12.0812 13.8721 12.2722 13.8046 12.4597 13.7121C12.8645 13.5121 13.1654 13.2346 13.3099 13.0871C13.366 13.0296 13.4078 12.9809 13.4257 12.9596L14.849 11.4959L14.8549 11.5021L19.7493 6.46213L19.7755 6.42963L22.1528 3.98088C22.4728 3.65338 22.9731 3.61088 23.3361 3.87213L23.8997 4.46213C23.9009 4.46213 23.9009 4.46338 23.9009 4.46338L26.9576 7.66338C26.9851 7.69213 27.0102 7.72088 27.034 7.75213C27.3767 8.19463 27.3505 8.85463 26.954 9.26838Z" fill="#EB2227"/>
<path d="M15.1415 5.02587C15.0555 5.11587 14.9134 5.11337 14.8263 5.02212C13.3839 3.50087 11.0281 3.49087 9.57492 5.00087C8.12298 6.51087 8.11223 8.97712 9.55582 10.4984L10.6854 11.6909C10.6925 11.6984 10.7009 11.7084 10.7045 11.7171C10.6985 11.7171 10.6937 11.7184 10.6878 11.7184C10.4824 11.7334 10.2746 11.7271 10.0704 11.7021L9.24059 10.8259C7.62626 9.12337 7.63582 6.36212 9.26209 4.67087C10.8895 2.98087 13.526 2.99212 15.1415 4.69462L15.1451 4.69837C15.231 4.78962 15.2287 4.93587 15.1415 5.02587ZM16.8681 6.51587L16.554 6.84462L16.0036 6.26462C15.9176 6.17337 15.9176 6.02587 16.0048 5.93587C16.0919 5.84587 16.2316 5.84587 16.3188 5.93712L16.8681 6.51587Z" fill="#099DD9"/>
<path d="M12.1373 11.2734C12.1337 11.2759 12.1313 11.2771 12.1278 11.2796C11.9916 11.3571 11.8531 11.4259 11.7099 11.4834L10.1719 9.85962C9.20955 8.84462 9.07224 7.25337 9.84478 6.07587C9.87812 6.02527 9.92925 5.99055 9.98698 5.9793C10.0447 5.96806 10.1043 5.98121 10.1528 6.01587C10.2543 6.08837 10.2794 6.23337 10.2102 6.33962C9.55821 7.33212 9.67523 8.67587 10.4872 9.53212L12.1373 11.2734ZM15.9391 7.48712L15.9319 7.49462L15.7003 7.73712L15.6263 7.81462L13.8961 5.98962C13.2537 5.31212 12.3164 5.07462 11.4472 5.36962C11.3313 5.40962 11.206 5.34212 11.1678 5.22087C11.1296 5.09837 11.194 4.96712 11.311 4.92712C12.3379 4.57837 13.4507 4.86087 14.2102 5.66212L15.9391 7.48712Z" fill="#099DD9"/>
<path d="M15.0113 8.4584L14.6973 8.78714L12.9636 6.95715C12.5409 6.50965 11.8484 6.50715 11.4221 6.9509C10.9958 7.39465 10.9922 8.1184 11.4161 8.56465L12.5337 9.74465C12.6197 9.83465 12.6197 9.98215 12.5325 10.0734C12.4466 10.1634 12.3057 10.1634 12.2185 10.0721L11.0997 8.89215C10.5051 8.2634 10.5087 7.2459 11.1081 6.62215C11.7087 5.9984 12.6818 6.0034 13.2764 6.6309L15.0113 8.4584Z" fill="#099DD9"/>
<path d="M14.0848 9.4296L14.0776 9.4371L13.846 9.6796L13.7719 9.7571L12.0334 7.9246C11.9475 7.8346 11.9475 7.6871 12.0346 7.59585C12.1218 7.50585 12.2627 7.50585 12.3487 7.5971L14.0848 9.4296Z" fill="#099DD9"/>
<path d="M7.05672 30.7359C7.22269 30.7359 7.34567 30.7059 7.42687 30.6459C7.50806 30.5859 7.5606 30.4946 7.58567 30.3709C7.6012 30.2934 7.59165 30.2271 7.5606 30.1734C7.52836 30.1196 7.45672 30.0534 7.34448 29.9759L6.9015 29.6559C6.8012 29.5821 6.72478 29.5071 6.67224 29.4296C6.6197 29.3521 6.58985 29.2721 6.5803 29.1884C6.57075 29.1046 6.57672 29.0134 6.59582 28.9159C6.64359 28.6784 6.75582 28.4909 6.93254 28.3534C7.10926 28.2171 7.3612 28.1484 7.68956 28.1484C7.81732 28.1484 7.9403 28.1646 8.05732 28.1971C8.17433 28.2296 8.2615 28.2659 8.3212 28.3059C8.34627 28.3234 8.36418 28.3396 8.37612 28.3546C8.38687 28.3696 8.39045 28.3896 8.38568 28.4146L8.32956 28.6884C8.31523 28.7546 8.27941 28.7746 8.2197 28.7496C8.15523 28.7221 8.0609 28.6946 7.93553 28.6684C7.81015 28.6421 7.69672 28.6284 7.59523 28.6284C7.32538 28.6284 7.17135 28.7221 7.13314 28.9109C7.11881 28.9771 7.12956 29.0321 7.16179 29.0771C7.19523 29.1221 7.26687 29.1834 7.37553 29.2621L7.7803 29.5496C7.89851 29.6334 7.98687 29.7184 8.04657 29.8034C8.10508 29.8884 8.1409 29.9746 8.15284 30.0634C8.16478 30.1521 8.15881 30.2534 8.13732 30.3684C8.10747 30.5171 8.04657 30.6546 7.95582 30.7821C7.86508 30.9096 7.73732 31.0121 7.57373 31.0934C7.40896 31.1734 7.20836 31.2134 6.97194 31.2134C6.81314 31.2134 6.67224 31.1946 6.54926 31.1559C6.42508 31.1184 6.3415 31.0834 6.29612 31.0509C6.26508 31.0284 6.24478 31.0109 6.23642 30.9984C6.22806 30.9859 6.22687 30.9671 6.23164 30.9421L6.28776 30.6684C6.3009 30.6071 6.33672 30.5859 6.39762 30.6071C6.63284 30.6946 6.85254 30.7359 7.05672 30.7359ZM9.25015 30.7634C9.39463 30.7634 9.56657 30.7321 9.76597 30.6709C9.82329 30.6546 9.84597 30.6771 9.83403 30.7359L9.78269 30.9946C9.77672 31.0196 9.76597 31.0396 9.75045 31.0546C9.73493 31.0696 9.71105 31.0846 9.67881 31.0996C9.53075 31.1771 9.35761 31.2159 9.15821 31.2159C8.98627 31.2159 8.8406 31.1821 8.72239 31.1146C8.60418 31.0471 8.52179 30.9396 8.47642 30.7934C8.43105 30.6471 8.42985 30.4609 8.47523 30.2359L8.55284 29.8596C8.59702 29.6396 8.67105 29.4559 8.77612 29.3096C8.8812 29.1621 9.00657 29.0534 9.15344 28.9846C9.3003 28.9146 9.4603 28.8796 9.63224 28.8796C9.83045 28.8796 9.98806 28.9184 10.1051 28.9959C10.1313 29.0109 10.1493 29.0246 10.1588 29.0396C10.1684 29.0546 10.1707 29.0746 10.1648 29.0996L10.1122 29.3584C10.0991 29.4171 10.0681 29.4396 10.0179 29.4234C9.93911 29.3946 9.86627 29.3721 9.8006 29.3559C9.73493 29.3396 9.65373 29.3309 9.55702 29.3309C9.29672 29.3309 9.13075 29.5071 9.05911 29.8596L8.9815 30.2359C8.94329 30.4271 8.95165 30.5621 9.00657 30.6434C9.06508 30.7234 9.14508 30.7634 9.25015 30.7634ZM11.2657 29.3221C11.0639 29.3221 10.8513 29.3571 10.6293 29.4271C10.5719 29.4434 10.5493 29.4209 10.5612 29.3621L10.6102 29.1159C10.6149 29.0909 10.6257 29.0709 10.6412 29.0546C10.6567 29.0384 10.6806 29.0246 10.714 29.0109C10.8 28.9759 10.9027 28.9446 11.0245 28.9184C11.1463 28.8921 11.2764 28.8784 11.4149 28.8784C11.5809 28.8784 11.717 28.9071 11.8233 28.9634C11.9296 29.0196 12.0024 29.1071 12.0418 29.2234C12.0812 29.3409 12.0848 29.4821 12.0502 29.6496L11.7696 31.0271C11.7648 31.0559 11.7576 31.0759 11.7493 31.0884C11.7409 31.0996 11.723 31.1096 11.6979 31.1159C11.5773 31.1484 11.4615 31.1734 11.3516 31.1909C11.2406 31.2084 11.1081 31.2171 10.9516 31.2171C10.7403 31.2171 10.5731 31.1946 10.449 31.1484C10.3248 31.1021 10.24 31.0296 10.1958 30.9309C10.1516 30.8321 10.1457 30.7009 10.1791 30.5396L10.1827 30.5196C10.2078 30.3996 10.2448 30.2984 10.2937 30.2134C10.3427 30.1296 10.4096 30.0584 10.4931 30.0009C10.5767 29.9434 10.6782 29.8996 10.7988 29.8721C10.9194 29.8434 11.0651 29.8296 11.2346 29.8296H11.5057L11.5415 29.6521C11.5666 29.5259 11.557 29.4396 11.5128 29.3934C11.4687 29.3446 11.3863 29.3221 11.2657 29.3221ZM11.311 30.7796L11.4316 30.1821H11.1606C11.0436 30.1821 10.9552 30.1934 10.8943 30.2146C10.8346 30.2359 10.7905 30.2696 10.763 30.3159C10.7355 30.3609 10.714 30.4246 10.6985 30.5059L10.6925 30.5296C10.677 30.6059 10.677 30.6646 10.6925 30.7046C10.7081 30.7446 10.7403 30.7734 10.7928 30.7896C10.8442 30.8059 10.9242 30.8146 11.0316 30.8146C11.1415 30.8134 11.2334 30.8021 11.311 30.7796ZM13.969 31.0996C13.9654 31.1209 13.9534 31.1396 13.9343 31.1584C13.9182 31.1745 13.8969 31.1839 13.8746 31.1846H13.5188C13.4973 31.1846 13.4818 31.1759 13.471 31.1584C13.4604 31.141 13.4565 31.1199 13.4603 31.0996L13.7313 29.7659C13.7528 29.6596 13.7576 29.5746 13.7469 29.5109C13.7361 29.4484 13.7063 29.4021 13.6549 29.3734C13.6048 29.3446 13.5307 29.3296 13.4328 29.3296C13.3146 29.3296 13.1857 29.3446 13.0448 29.3734L12.6937 31.0996C12.6902 31.1234 12.6794 31.1434 12.6603 31.1596C12.6424 31.1759 12.6221 31.1846 12.5994 31.1846H12.2448C12.2221 31.1846 12.2054 31.1759 12.1946 31.1584C12.1839 31.141 12.1801 31.1199 12.1839 31.0996L12.5946 29.0796C12.6018 29.0396 12.634 29.0134 12.689 28.9984C12.8251 28.9621 12.9684 28.9321 13.12 28.9109C13.2716 28.8896 13.4113 28.8784 13.5379 28.8784C13.8412 28.8784 14.049 28.9484 14.1612 29.0884C14.2746 29.2284 14.2997 29.4534 14.2388 29.7621L13.969 31.0996ZM16.6209 31.1146C16.6137 31.1559 16.5839 31.1796 16.5337 31.1871C16.4215 31.2059 16.3188 31.2146 16.2245 31.2146C16.0716 31.2146 15.9546 31.1984 15.8734 31.1659C15.7922 31.1334 15.7421 31.0721 15.7194 30.9796C15.6967 30.8871 15.7039 30.7521 15.7397 30.5734L15.9964 29.3046L15.6896 29.2471C15.6394 29.2384 15.6191 29.2109 15.6275 29.1659L15.6657 28.9846C15.6694 28.962 15.6809 28.9416 15.6979 28.9271C15.7158 28.9109 15.7361 28.9034 15.7576 28.9034H16.0776L16.1457 28.5721C16.154 28.5271 16.1863 28.5009 16.24 28.4909L16.6113 28.4259H16.6281C16.6687 28.4259 16.6842 28.4459 16.6746 28.4871L16.5899 28.9034H16.9803C17.0042 28.9034 17.0221 28.9109 17.0328 28.9246C17.0436 28.9396 17.0472 28.9584 17.0424 28.9834L16.9934 29.2221C16.9887 29.2446 16.9767 29.2634 16.9588 29.2796C16.9409 29.2959 16.9206 29.3034 16.8991 29.3034H16.5087L16.2519 30.5721C16.2316 30.6721 16.2269 30.7346 16.2376 30.7596C16.2484 30.7846 16.2878 30.7971 16.3558 30.7971H16.603C16.6567 30.7971 16.6806 30.8171 16.6722 30.8584L16.6209 31.1146ZM18.8752 30.2096C18.8358 30.4021 18.7654 30.5746 18.6627 30.7284C18.5635 30.8791 18.4307 31.0022 18.2758 31.0871C18.1206 31.1721 17.9439 31.2159 17.7469 31.2159C17.5522 31.2159 17.3934 31.1734 17.2705 31.0871C17.1475 31.0021 17.0675 30.8821 17.0281 30.7284C16.9887 30.5746 16.9887 30.4021 17.0281 30.2096L17.0937 29.8846C17.1331 29.6921 17.2036 29.5196 17.3051 29.3659C17.4041 29.2146 17.5374 29.0913 17.6931 29.0071C17.8507 28.9221 18.0263 28.8784 18.2209 28.8784C18.4179 28.8784 18.5767 28.9209 18.6973 29.0071C18.8179 29.0921 18.8979 29.2121 18.9373 29.3659C18.9767 29.5196 18.9767 29.6921 18.9385 29.8846L18.8752 30.2096ZM18.3666 30.2096L18.4322 29.8846C18.4657 29.7159 18.4573 29.5834 18.4072 29.4846C18.3558 29.3871 18.2639 29.3371 18.129 29.3371C17.9952 29.3371 17.8842 29.3859 17.7922 29.4846C17.7015 29.5821 17.6382 29.7159 17.6048 29.8846L17.5391 30.2096C17.5057 30.3784 17.514 30.5109 17.5654 30.6096C17.6167 30.7071 17.7087 30.7571 17.84 30.7571C17.9737 30.7571 18.086 30.7084 18.1779 30.6096C18.2699 30.5109 18.3319 30.3784 18.3666 30.2096ZM22.4573 29.1184C22.3905 29.4509 22.2388 29.6921 22.0036 29.8409C21.7672 29.9896 21.4842 30.0646 21.1534 30.0646C21.1331 30.0646 21.089 30.0634 21.0209 30.0596C20.9528 30.0559 20.9075 30.0546 20.8872 30.0521C20.8669 30.0509 20.8418 30.0496 20.8143 30.0484L20.6018 31.1021C20.597 31.1259 20.5851 31.1446 20.5684 31.1609C20.5527 31.1749 20.5329 31.1829 20.5122 31.1834H20.1254C20.1063 31.1834 20.0907 31.1759 20.0776 31.1596C20.0713 31.1518 20.0669 31.1425 20.0648 31.1324C20.0627 31.1224 20.063 31.112 20.0657 31.1021L20.6293 28.3221C20.6364 28.2834 20.6531 28.2559 20.677 28.2384C20.7021 28.2209 20.7355 28.2084 20.7773 28.2021C20.9958 28.1671 21.2513 28.1484 21.5439 28.1484C21.8758 28.1484 22.129 28.2209 22.3045 28.3659C22.48 28.5109 22.5337 28.7496 22.4657 29.0809L22.4573 29.1184ZM21.9236 29.1184L21.9307 29.0834C21.9642 28.9146 21.9427 28.7946 21.8639 28.7221C21.7851 28.6496 21.6466 28.6134 21.4484 28.6134C21.3242 28.6134 21.2084 28.6196 21.1021 28.6309L20.9063 29.5921C21.0293 29.5996 21.1427 29.6034 21.2478 29.6034C21.3863 29.6034 21.5009 29.5859 21.5916 29.5509C21.6824 29.5159 21.7552 29.4634 21.809 29.3921C21.8627 29.3221 21.9021 29.2309 21.9236 29.1184ZM23.2979 29.3221C23.0961 29.3221 22.8836 29.3571 22.6615 29.4271C22.6042 29.4434 22.5815 29.4209 22.5934 29.3621L22.6424 29.1159C22.6472 29.0909 22.6579 29.0709 22.6734 29.0546C22.689 29.0384 22.7128 29.0246 22.7463 29.0109C22.8322 28.9759 22.9349 28.9446 23.0567 28.9184C23.1785 28.8921 23.3087 28.8784 23.4472 28.8784C23.6131 28.8784 23.7493 28.9071 23.8555 28.9634C23.9618 29.0196 24.0346 29.1071 24.074 29.2234C24.1134 29.3409 24.117 29.4821 24.0824 29.6496L23.8018 31.0271C23.797 31.0559 23.7899 31.0759 23.7815 31.0884C23.7731 31.0996 23.7552 31.1096 23.7302 31.1159C23.6096 31.1484 23.4937 31.1734 23.3839 31.1909C23.2728 31.2084 23.1403 31.2171 22.9839 31.2171C22.7725 31.2171 22.6054 31.1946 22.4812 31.1484C22.357 31.1021 22.2722 31.0296 22.2281 30.9309C22.1839 30.8321 22.1779 30.7009 22.2113 30.5396L22.2149 30.5196C22.24 30.3996 22.277 30.2984 22.326 30.2134C22.3749 30.1296 22.4418 30.0584 22.5254 30.0009C22.609 29.9434 22.7105 29.8996 22.831 29.8721C22.9516 29.8434 23.0973 29.8296 23.2669 29.8296H23.5379L23.5737 29.6521C23.5988 29.5259 23.5893 29.4396 23.5451 29.3934C23.5009 29.3446 23.4185 29.3221 23.2979 29.3221ZM23.3433 30.7796L23.4639 30.1821H23.1928C23.0758 30.1821 22.9875 30.1934 22.9266 30.2146C22.8669 30.2359 22.8227 30.2696 22.7952 30.3159C22.7678 30.3609 22.7463 30.4246 22.7307 30.5059L22.7248 30.5296C22.7093 30.6059 22.7093 30.6646 22.7248 30.7046C22.7403 30.7446 22.7725 30.7734 22.8251 30.7896C22.8764 30.8059 22.9564 30.8146 23.0639 30.8146C23.1737 30.8134 23.2669 30.8021 23.3433 30.7796ZM26.4884 28.9746C26.4866 28.9831 26.4833 28.9911 26.4788 28.9984L25.354 31.3584C25.28 31.5159 25.206 31.6396 25.1331 31.7296C25.0603 31.8196 24.9684 31.8859 24.8597 31.9284C24.751 31.9721 24.6113 31.9934 24.4406 31.9934C24.3749 31.9934 24.3033 31.9884 24.2257 31.9771C24.1481 31.9671 24.0872 31.9546 24.043 31.9396C23.9916 31.9246 23.969 31.9021 23.9749 31.8709L24.0275 31.6121C24.031 31.5921 24.0418 31.5759 24.0609 31.5609C24.0788 31.5459 24.0991 31.5396 24.1206 31.5396H24.1278C24.1612 31.5409 24.2328 31.5459 24.3403 31.5534C24.4478 31.5609 24.5206 31.5646 24.5576 31.5646C24.6137 31.5646 24.6627 31.5571 24.7045 31.5434C24.7463 31.5284 24.7833 31.5034 24.8167 31.4659C24.8502 31.4284 24.8836 31.3746 24.9158 31.3046L24.9708 31.1846H24.9146C24.8705 31.1846 24.8299 31.1771 24.7928 31.1634C24.7558 31.1484 24.7236 31.1171 24.6961 31.0671C24.6687 31.0171 24.6519 30.9446 24.6448 30.8496L24.517 28.9996C24.5155 28.9904 24.5163 28.9809 24.5194 28.9721C24.5278 28.9284 24.5576 28.9071 24.6066 28.9071H24.997C25.0149 28.9071 25.0293 28.9146 25.04 28.9284C25.0508 28.9434 25.0555 28.9596 25.0555 28.9796L25.1116 30.6234C25.1116 30.6821 25.1224 30.7121 25.1451 30.7121H25.1809L25.9499 28.9759C25.969 28.9296 26 28.9071 26.0418 28.9071H26.4358C26.4537 28.9071 26.4681 28.9134 26.4788 28.9284C26.4884 28.9396 26.4919 28.9559 26.4884 28.9746Z" fill="#099DD9"/>
<path fill-rule="evenodd" clip-rule="evenodd" d="M22.72 24.3083L20.7021 21.2796L20.4967 21.0821H22.486L23.834 23.3721L23.9427 23.2796L24.757 22.0121C24.9576 21.7008 24.9301 21.3383 24.6448 21.0833H26.5242L24.3522 24.3083L24.351 26.6483L24.7343 27.1246H22.3988L22.7284 26.6546C22.7272 25.8758 22.6997 25.0871 22.72 24.3083ZM17.2406 21.0833C17.4018 21.3146 17.4496 21.3958 17.4675 21.6021C17.4806 21.7458 17.471 21.8271 17.4269 21.9608L15.926 26.5171C15.8555 26.7046 15.711 26.9108 15.4997 27.1121H17.1379C17.0161 26.9996 16.9385 26.8646 16.9098 26.7046C16.8836 26.5583 16.8848 26.5033 16.9158 26.3633L17.249 25.2808H19.1546L19.4519 26.1146C19.483 26.2021 19.5009 26.2833 19.5081 26.3771C19.5343 26.6883 19.4388 26.9446 19.2024 27.1258H21.7696C21.5176 26.8908 21.286 26.6446 21.1558 26.3471L19.2812 21.0833H17.2406ZM18.874 24.4958H17.5104L18.1719 22.5233L18.874 24.4958ZM12.0478 21.0883L13.3385 21.0833H14.9051C15.7672 21.0833 16.4716 21.8208 16.4716 22.7233V22.9258C16.4716 23.8283 15.766 24.5158 14.9051 24.5433L14.191 24.5658C14.7654 24.2896 15.0054 23.5908 14.9337 22.9608C14.8764 22.4558 14.6281 21.9696 14.2137 21.9608L13.9522 21.9546V26.4508C13.9522 26.5383 13.9666 26.5746 14.0107 26.6521C14.0812 26.7746 14.1743 26.8971 14.271 27.0183C14.2961 27.0496 14.3212 27.0821 14.3463 27.1133H12.1242C12.1576 27.0708 12.1898 27.0271 12.2209 26.9833C12.2878 26.8871 12.3475 26.7858 12.3928 26.6721C12.4215 26.5996 12.4358 26.5446 12.4358 26.4671V21.6371C12.4275 21.3858 12.1887 21.2421 12.0478 21.0883Z" fill="#085CA8"/>
<path fill-rule="evenodd" clip-rule="evenodd" d="M0 21.0558H1.79343L3.2991 25.5758L4.57552 21.8321C4.5994 21.6871 4.5791 21.6396 4.52537 21.5146C4.45493 21.3621 4.3797 21.2146 4.30806 21.0633H5.64776C5.56776 21.3683 5.45075 21.7046 5.35045 22.0121L3.6203 27.2758C3.14746 27.1771 2.62209 26.9821 2.21373 26.5771C1.90687 26.2733 1.79821 25.9271 1.64657 25.5158L0.199403 21.5046C0.144478 21.3458 0.0752239 21.2046 0 21.0558H0ZM7.16179 23.1746V26.4046C7.16179 26.5358 7.19045 26.5596 7.26806 26.6646L7.62149 27.1471H5.93313L6.21851 26.6908C6.29134 26.5658 6.32358 26.5233 6.32358 26.3771V21.8658L5.84836 21.0583H7.59881L10.4322 24.8783V21.8333C10.4322 21.6883 10.4048 21.6408 10.3307 21.5158C10.2352 21.3633 10.1361 21.2158 10.0418 21.0646H11.729L11.3767 21.5471C11.2991 21.6521 11.2704 21.6758 11.2704 21.8071V27.3021C10.6316 27.2146 10.037 27.0508 9.50687 26.3421L7.16179 23.1746Z" fill="#EB2227"/>
<path fill-rule="evenodd" clip-rule="evenodd" d="M26.394 22.5446C26.394 22.4146 26.412 22.2859 26.4454 22.1621C26.4812 22.0396 26.5302 21.9209 26.597 21.8046C26.7212 21.5834 26.9015 21.4071 27.1343 21.2771C27.3696 21.1471 27.6394 21.0834 27.9523 21.0834C28.0788 21.0834 28.1994 21.0984 28.3081 21.1309C28.4191 21.1634 28.5278 21.2134 28.6376 21.2796C28.843 21.4034 29.0054 21.5796 29.1236 21.8071C29.1845 21.9271 29.2323 22.0509 29.2657 22.1796C29.2967 22.3096 29.3134 22.4509 29.3134 22.6009C29.3134 22.8071 29.2705 23.0209 29.1833 23.2396C29.0961 23.4571 28.972 23.6421 28.8096 23.7921L29.0114 23.9946C29.0926 24.0746 29.1773 24.1496 29.2681 24.2196C29.3588 24.2896 29.4591 24.3496 29.5702 24.4021C29.6812 24.4559 29.797 24.4871 29.9152 24.4971C29.8102 24.5884 29.6979 24.6584 29.5821 24.7084C29.4639 24.7584 29.3409 24.7809 29.2131 24.7809C29.1045 24.7809 28.9934 24.7584 28.8836 24.7084C28.7714 24.6609 28.6663 24.6009 28.5672 24.5309C28.4621 24.4559 28.3678 24.3796 28.283 24.3071L28.0573 24.1084C28.0418 24.1084 28.0215 24.1084 27.9964 24.1109C27.9714 24.1134 27.9415 24.1171 27.9057 24.1234L27.772 24.1359C27.5128 24.1359 27.2788 24.0634 27.0675 23.9234C26.8561 23.7834 26.6902 23.5909 26.5743 23.3484C26.517 23.2284 26.4717 23.1021 26.4418 22.9684C26.4108 22.8296 26.394 22.6909 26.394 22.5446ZM27.194 22.5534C27.194 22.6459 27.2036 22.7434 27.2251 22.8434C27.2406 22.9134 27.2645 23.0021 27.3003 23.1096C27.3552 23.2796 27.4364 23.4196 27.5427 23.5271C27.6478 23.6371 27.7779 23.6909 27.932 23.6909C28.1314 23.6909 28.2794 23.6084 28.3737 23.4434C28.4681 23.2784 28.5182 23.0671 28.5182 22.8084C28.5182 22.7421 28.5099 22.6346 28.4979 22.4896C28.4836 22.3821 28.4645 22.2834 28.4406 22.1946C28.4167 22.1021 28.3893 22.0209 28.3582 21.9509C28.2985 21.8109 28.2197 21.7046 28.117 21.6346C28.0167 21.5621 27.8961 21.5271 27.76 21.5271C27.6967 21.5271 27.637 21.5396 27.5821 21.5646C27.5284 21.5871 27.477 21.6221 27.4317 21.6684C27.3493 21.7509 27.2872 21.8584 27.2502 21.9884C27.2131 22.1184 27.1928 22.2609 27.1928 22.4146V22.4934C27.1928 22.5184 27.194 22.5359 27.194 22.5534ZM30.3642 22.5834C30.4483 22.57 30.5286 22.5376 30.5994 22.4884C30.6687 22.4384 30.7224 22.3721 30.7618 22.2921C30.7821 22.2534 30.7952 22.2134 30.8072 22.1721C30.8167 22.1309 30.8215 22.0871 30.8215 22.0434C30.8215 21.9096 30.7881 21.7971 30.7164 21.7059C30.6472 21.6171 30.5409 21.5721 30.3988 21.5721H30.3654V22.5834H30.3642ZM30.3642 22.8171V23.6384C30.3642 23.8434 30.4251 23.9821 30.5457 24.0534V24.0721H29.4078V24.0534C29.5224 23.9846 29.5821 23.8484 29.5821 23.6446V21.6346C29.5821 21.5121 29.5702 21.4159 29.5511 21.3471C29.5296 21.2771 29.4818 21.2146 29.409 21.1609V21.1521H30.7893C30.9433 21.1521 31.0818 21.1809 31.2036 21.2409C31.3266 21.3009 31.4233 21.3871 31.4937 21.5071C31.5308 21.5646 31.557 21.6309 31.5749 21.7034C31.5952 21.7734 31.6048 21.8521 31.6048 21.9334C31.6048 22.0434 31.5714 22.1609 31.5021 22.2909C31.4352 22.4196 31.3051 22.5346 31.1093 22.6346L31.6561 23.5996C31.7863 23.8084 31.9045 23.9571 32.012 24.0459L31.532 24.0834L31.4114 24.0871H31.2991C31.1905 24.0871 31.1057 24.0684 31.0424 24.0296C30.9815 23.9921 30.9218 23.9184 30.8681 23.8084L30.3642 22.8171Z" fill="#EB2227"/>
</g>
<defs>
<clipPath id="clip0_1_434">
<rect width="32" height="32" fill="white"/>
</clipPath>
</defs>
</svg>
